<svg xmlns="http://www.w3.org/2000/svg" viewBox="0 0 28 28"><path d="M1.55,14.86c1.81.12,3.51.85,5.36.38a2.57,2.57,0,0,1,1.65,0,5,5,0,0,0,2.37.3c.61,0,1.23,0,1.84,0A3.58,3.58,0,0,1,13.36,17c.07,1.6.55,3.16.38,4.78a1.71,1.71,0,0,0,.82,1.72A5,5,0,0,0,15.64,20c-.08-1.24,0-2.49,0-3.71a2.91,2.91,0,0,1,2.26-.69c3.12,0,7,0,10.12,0v-3c-3.84,0-8.45,0-12.37,0,.19-2.42-.54-5.16-.4-7.41.1-1.72.65-3.4.39-5.15h-3c-.15,1.53.3,3.1-.36,4.6a.81.81,0,0,0,.1.53c.75,2,.61,4.71.64,6.8a2.76,2.76,0,0,1-.64,1.75,13.33,13.33,0,0,0-3.8.37A1.69,1.69,0,0,1,7.11,14a3,3,0,0,0-1.44-.24C4,13.49,2.5,14,.89,14.13c-.26,0-.89.26-.89.51S1.16,14.84,1.55,14.86Z"/></svg>