<svg xmlns="http://www.w3.org/2000/svg" viewBox="0 0 10.84 42.26"><path d="M9.27,2.8A4,4,0,0,0,6.8,2.11c-.91.07-2.45.11-2.32-.88C4.69-.36,4.4-.4,3.29,1.07c-.71,1-2.18.5-3.29.46V6.69H.47c2.23,0,2.92.53,3,2.75a40.3,40.3,0,0,1,.17,5.82,10.89,10.89,0,0,0,.32,5.18A4.69,4.69,0,0,1,4.1,23a42.83,42.83,0,0,0-.59,9.65c0,1.21-.39,1.61-1.65,1.9-.62.14-1.24.24-1.86.33v3.76c.64-.09,2.27-.18,2.48.44,1.13,3.41,1.37,5,2.74-.1.37-1.42,2.67-1.16,3.75-2.24,1.24-1.27,1.3-2.29-.38-3.07A4.43,4.43,0,0,1,5.87,28.6c.47-2.84-.18-5.58-.08-8.36a5.59,5.59,0,0,1,.26-2.18A3.68,3.68,0,0,0,6,15.24c-.73-2.87.36-7.1,3.46-8.64C11.42,5.6,11.23,4,9.27,2.8Z"/></svg>