<svg xmlns="http://www.w3.org/2000/svg" viewBox="0 0 482.25 8.17"><path d="M14.18,8c1.73,0,3.46-.42,5.19-.39,4,.06,7.92.37,11.88.41,7.7.1,15.4,0,23.09-.49a5.38,5.38,0,0,1,1.5,0c3.79.91,7.65.18,11.47.48,2.6.21,5.25-.42,7.8-.29C78,7.85,80.83,8,83.69,8c19.37.05,38.73.11,58.1.05,5.47,0,11,.52,16.43-.52a3.88,3.88,0,0,1,1.85.15,13.71,13.71,0,0,0,4.46.36q4.84,0,9.69,0c15.6-.07,31.21.38,46.8-.58a4.07,4.07,0,0,1,1.47.18A14.55,14.55,0,0,0,227,8c11.21.19,22.41-.58,33.62-.08a9.54,9.54,0,0,0,2.62-.09c3-.77,5.95-.34,8.94-.46,6.47-.26,13,.82,19.42-.58a8.86,8.86,0,0,1,3.34.2c3.3.57,6.66,1.26,10,.82,2.87-.37,5.73-.23,8.59-.38,4.47-.24,9,.58,13.43-.61a1.88,1.88,0,0,1,1.1.06,7.27,7.27,0,0,0,5.48,0,4,4,0,0,1,1.84-.09c4.92.64,9.82,1.59,14.75,0a1.8,1.8,0,0,1,1.1,0c3.14,1.18,6.39.61,9.6.67,6.34.13,12.67-.43,19,.33,4.72.55,9.5-.6,14.26-.85,2.36-.13,4.77-.59,7.07-.27,3.23.44,6.39.87,9.61,0a3.9,3.9,0,0,1,1.82.24,8.36,8.36,0,0,0,3.72.07,28.47,28.47,0,0,1,5.6-.33l47.23-.07c4.33,0,8.68,0,13.11,0V1.53c-.51,0-1-.08-1.54-.08-11.87,0-23.75-.16-35.62,0-3.45,0-6.88.14-10.34,0a68.93,68.93,0,0,0-7.71.48,31.12,31.12,0,0,1-8.94-.12,20.8,20.8,0,0,0-4.42-.5q-17.25.06-34.49.16c-2.49,0-5-.22-7.44.51a5.11,5.11,0,0,1-2.95-.06A13.86,13.86,0,0,0,364,1.46c-6.24-.05-12.48-.21-18.72-.1-6.45.12-12.88-.93-19.35.07-2.81.43-5.74,0-8.61,0-2.49,0-5-.24-7.47.32A9.48,9.48,0,0,1,305,1.7a11.23,11.23,0,0,0-3-.29c-15.75,0-31.49.08-47.24.05-1.59,0-3.15.26-4.78.12a125.44,125.44,0,0,0-13.71-.44c-2.72.07-5.44.34-8.17.32-4.07,0-8.1-.44-12.22-.22-8.6.46-17.24.14-25.87.12a12.77,12.77,0,0,1-3-.22,18.38,18.38,0,0,0-8.15,0,6.65,6.65,0,0,1-3.7,0,6.29,6.29,0,0,0-4.73.25,7.69,7.69,0,0,1-5.81.31,5,5,0,0,0-3.31,0c-3.13,1-6.5-.12-9.6,1.14a1.74,1.74,0,0,1-1.1-.07c-3.47-1.26-7.17-.48-10.71-1.25A24.27,24.27,0,0,1,135.85.13c-1.68-.69-2.63,1.61-4.48,1.35A50.08,50.08,0,0,0,125,1.42c-1.86,0-3.74-.34-5.52.56a3,3,0,0,1-1.48.15c-3.09-.26-6.24.57-9.28-.56a2.28,2.28,0,0,0-1.48-.05c-2.66,1-5.43.54-8.16.64-2.49.08-5-.22-7.48.21A42.34,42.34,0,0,1,76,2.37a7.1,7.1,0,0,0-3.33.18,14.16,14.16,0,0,1-7.79.17c-3.06-.92-6.23-.17-9.23-1.18a7,7,0,0,0-3.32.27A57.25,57.25,0,0,1,44.21,3c-4.46.22-8.89.69-13.42.32-5.06-.41-10.18,0-15.21-1a4,4,0,0,0-1.86,0C9.24,3.76,4.6,3.5,0,3.65V7.4C4.7,8.3,9.45,8,14.18,8Z"/></svg>