<svg xmlns="http://www.w3.org/2000/svg" viewBox="0 0 262 28"><path d="M262,12.61c-1.77,0-3.54.07-5.3,0-2.54-.14-5.11.34-7.62-.37a.59.59,0,0,0-.37,0c-1.25.55-2.57.28-3.86.35-2.85.13-5.72-.35-8.56.29a1.68,1.68,0,0,1-1.08-.14,3.13,3.13,0,0,0-1.47-.2c-3.18,0-6.37,0-9.55,0h-6c-2.06,0-4.12,0-6.18,0s-3.91.22-5.87,0a27.12,27.12,0,0,0-3.93,0c-.64,0-1.22-.49-1.78-.26a8,8,0,0,1-3.14.24c-4.93,0-9.87,0-14.8-.06-2.54,0-5.1.38-7.61-.35a.9.9,0,0,0-.56,0,10.77,10.77,0,0,1-4.62.23,4.94,4.94,0,0,0-2.12.15,6.65,6.65,0,0,1-2.37.29c-2.17.07-4.35-.27-6.49.33a1.9,1.9,0,0,1-1.46-.11,3.23,3.23,0,0,0-1.83-.24,14.73,14.73,0,0,1-5.6-1.12,2.26,2.26,0,0,1-1.8.74,52.33,52.33,0,0,0-6.49.26,9.21,9.21,0,0,1-5-.26.94.94,0,0,0-.71.08,2.76,2.76,0,0,1-1.82.21c-1.9-.24-3.79.9-5.68,0-.09,0-.23.06-.35.08a22,22,0,0,1-7.19-.07,6.08,6.08,0,0,0-2.39.12,8,8,0,0,1-4.39-.14,3,3,0,0,0-2.32-.28c-.78.32-1.64-.38-2.51-.15l-.35.11a16.54,16.54,0,0,1-4.75.63c-2,0-4-.06-6,0-1.28,0-2.55,0-3.83,0a10.93,10.93,0,0,1-4.06-.35,1.19,1.19,0,0,0-.91,0c-.94.52-2,.26-2.93.42a8.36,8.36,0,0,1-3,.17A14.27,14.27,0,0,0,80,12.87c-3.54.08-7.09-.38-10.62.29a1.14,1.14,0,0,1-.55,0c-1.76-.62-3.58-.25-5.37-.34a8.58,8.58,0,0,0-2.43,0,7.07,7.07,0,0,1-4,0,3.15,3.15,0,0,0-1.67,0,9.41,9.41,0,0,1-5.82-.24,1.88,1.88,0,0,0-1.43-.1c-1.28.5-2.55,1-3.92.29a.68.68,0,0,0-.54.05,3.79,3.79,0,0,1-2.2.23c-5.1-.17-10.21.35-15.3-.34a11.73,11.73,0,0,0-2.94.21,12.23,12.23,0,0,1-5.17-.2c-1-.32-2.08.2-3.11.21-2.47,0-5,.39-7.43-.26a.79.79,0,0,0-.55,0c-.81.49-1.71.18-2.56.29-1.5.18-2.94-.44-4.43-.38v3c4.35-.14,8.69.1,13.06-.23a37.2,37.2,0,0,1,9.48.25c1.95.35,3.89-.36,5.86-.3,1.81.05,3.62,0,5.43,0h5.44l5.43,0H55.57c1.78,0,3.56,0,5.33,0q34.86,0,69.72.18,38.79.12,77.58.19c2.6,0,5.22.36,7.81-.3a1.35,1.35,0,0,1,.91.07,3.77,3.77,0,0,0,2,.25c.74,0,1.49-.16,2.19-.19s1.56.21,2.36.21a28.9,28.9,0,0,0,4.25-.28,28.41,28.41,0,0,1,5.36.26c3.43.18,6.87.08,10.3.09a3,3,0,0,0,1.12,0,4.41,4.41,0,0,1,2.91-.16c1,.23,1.9-.38,2.88-.13,1.35.33,2.74.06,4.11.33a3.41,3.41,0,0,0,2.37-.25,1.44,1.44,0,0,1,1.1,0c1.35.55,2.75-.08,4.12,0Z"/></svg>