<svg id="Layer_1" data-name="Layer 1" xmlns="http://www.w3.org/2000/svg" viewBox="0 0 2267 29"><defs><style>.cls-1{fill:#fff;}</style></defs><path class="cls-1" d="M62,15c2.6-.08,3.88-.07,5.12,1.24,2.28,2.38,5,2,7.78.53,2-1.07,2-.95,4.82-.84,3.06.11,6.13-.28,9.12.93.9.36,2.7.2,3.19-.42,1.41-1.79,3.18-1.41,5-1.5,3.21-.17,6.49.6,9.61-.93.61-.3,1.58,0,2.36.21s1.78.6,2.7.7c2.53.29,5,0,7.65.81,2,.61,4.53-.73,6.83-1.22.76-.16,1.82-.78,2.22-.49,2.09,1.57,4.42.73,6.63.91a11.2,11.2,0,0,1,4.14.91c3.28,1.56,7,1.17,10.53,1,.7,0,1.37-.66,2.08-1a22.63,22.63,0,0,0,3.38-1.45c1.34-.89,2.26-.63,3.5.26.66.48,1.9.21,2.88.21H210c9.64-1.88,19.39-.78,29.08-1s19.33,0,29-.06c1.09,0,2.16-.49,3.25-.57,1.56-.12,3.34-.54,4.66,0a8.37,8.37,0,0,0,7.75-.63,3.26,3.26,0,0,1,3.88,0c2.13,1.18,4.62,2.5,7.09.28.28-.24,1-.08,1.47,0,8.4.73,16.7-1.3,25.08-1,1.88.08,3.95-.72,5.61.95a1,1,0,0,0,1,0c3.24-2.4,6.43.42,9.69.09s6.66,0,10-.11c1.71-.07,3.66.8,5.11-.89a13.36,13.36,0,0,0,5.56,1c.51,0,1.44.91,1.5.84,1.46-1.75,3.45-.53,5.13-1a19.05,19.05,0,0,1,11.76,0,2.07,2.07,0,0,0,1,.1c1.36-.29,2.77-1,4.07-.87s2.39,1.55,3.7,1.82a15.76,15.76,0,0,0,8.49-1.13,3.2,3.2,0,0,1,2.47-.39,13,13,0,0,0,6.63.18,4.18,4.18,0,0,1,3.86.33,12.11,12.11,0,0,0,9.36.62c6.68-1.94,6.79-2,14.94-.57a16.14,16.14,0,0,0,4,0c1.9-.16,4.89-.26,6,.45,1.59,1,3.78,1.09,4.62.34,2.17-1.91,4.3-.81,6.41-.74,3.88.14,7.74-.42,11.63.85,3.1,1,6.33-.48,9.35-1.37a8.62,8.62,0,0,1,5.1-.1c1.37.39,3,.9,4.23.5,4-1.31,7.7-.86,11.74-.11,3,.55,6.42,1,9.61-.68,1.16-.62,2.94-.12,4.43-.12q125,0,250,0c1.85,0,4,.92,5.62-.92a1.55,1.55,0,0,1,1.44,0c2.72,1.83,5.74.87,8.61.91,8.49.14,17,0,25.49.1,2.87,0,5.72.75,8.59.91s6.1.54,9-.06c8.68-1.78,17.41-.48,26.1-.85,1.54-.07,3.16-.5,4.69.8a3.73,3.73,0,0,0,3.36.07c3-1.57,6.08-.74,9.12-.88s6.41-.46,9.47.11c2,.39,4.21,1.4,6.08.74,4.35-1.53,8.75-.81,13.12-.84,16.66-.12,33.32-.05,50-.05,4.06,0,8.13,2.16,12,.87,4.41-1.45,8.79-.88,13.11-.71,2.83.12,5.83,1.54,8.56.73,5.37-1.6,10.76-.68,16.12-.83,7.16-.21,14.44-.86,21.46.14,9.41,1.35,18.76.31,28.11.76,1.88.09,3.76.35,5.67-.82,1-.6,2.78.19,4.21.35,1.6.17,3.45.93,4.74.39,3.53-1.47,7.1-.73,10.63-.84,5-.15,10.09-.61,15,.15,3.57.56,7.28,1.48,10.57.62,5.26-1.37,10.44-.33,15.63-.81,6.94,2.14,14.13,1.3,21.06.74,5.88-.47,11.73-.59,17.6-.71s12.07-.63,18,.11c9.21,1.17,18.4.63,27.59.86,5.62-1.72,11.39-.85,17.09-1s11.33-.13,17,0c2.87.07,5.72.74,8.59.91s5.67-.06,8.49.07c2.62.12,4.9-1.46,7.6-1.1,2.45.34,5,0,7.49.11,1.87.12,3.68,0,5.67.73,1.78.68,4.29.35,6.64-.36,2.63-.79,5.75,0,8.65.11,1.27.07,2.77.83,3.75.38,3.33-1.53,6.75-.77,10.12-.86,5-.14,10.13-.74,15,.14,6.41,1.15,12.75.6,19.11.78s12.67,0,19,0c2.75,0,5.22-1.47,8.09-1.08,2.62.35,5.53-.56,8,.2,5.22,1.66,10.44.37,15.62.87,4.24-1.88,8.83-1.39,13.07-.85,12.7,1.62,25.4.57,38.09.8s25.33,0,38,0h38.5c12.66,0,25.33.12,38-.07,4.85-.07,9.66-1.21,14.58-1,3.72.18,7.27,1.49,11.09,1.14,2.56-.23,4.88-1.51,7.59-1.16a73.3,73.3,0,0,0,8,.09c1.39,0,2.78-2.12,4.17,0h29.49a9,9,0,0,1,8.7-.06c.81.39,2,.06,3,.06,5,0,10,.06,15,0,1.55,0,3.3.71,4.65-.9.28-.33,1.37-.27,1.93,0,3.93,1.71,8.06.79,12.09.93s8,0,12,0c1.17,0,2.6-.43,3.45.08,2.65,1.6,5.54,1.25,8.11.81,9.86-1.7,19.74-.64,29.6-.84s20-.14,30,0c4,0,8,.75,12.08.91a76.58,76.58,0,0,0,12.49,0c14.68-1.84,29.39-.63,44.08-.86s29.66-.06,44.49-.06h178c14.83,0,29.67.06,44.49,0,3.75,0,7.3,1.66,11.09,1,1.7-.28,3.65.75,5.11-1a1,1,0,0,1,1,0c3.45,2.26,7.48.34,11.27,1.75,3.49,1.3,7.53-.2,11.27-1.29a15.13,15.13,0,0,1,10.39.54c3,1.3,5.81,3.12,9.31,1.06,1-.58,2.62,0,4-.1,2.38-.17,4.87.64,7.12-.94a2.44,2.44,0,0,1,1.95,0c4.94,2,10.08.49,15.1,1,1.94.18,3.49-1.41,5.59-1.09,1.65.25,3.49.62,5.13-.83,1.09-1,2.51,1.11,4.19.06,1.08-.67,2.95-.29,4.42-.08a11.88,11.88,0,0,1,4.44,1.28c1.32.79,2.2.33,3.48.12,2.91-.46,6-1.59,8.81.9,1.06.93,2.89,1,4.34,1.49.66.23,2,0,1.58,1.19-.25.77-1.2,1.8-1.88,1.83-1.53.09-3.35.79-4.6-.88,0-.08-.37.06-.47,0-3.29-2.56-6.6-1.86-9.84,0a2.76,2.76,0,0,1-3.22,0c-.62-.36-1.63-.06-2.46-.06a33.33,33.33,0,0,1-4,0c-1.71-.2-3.43-1-5.08-.85-1.44.13-2.73,1.43-4.19,1.81-1.25.32-2.68-.09-4,.1-2.2.32-4.62-1-6.65.85a1.36,1.36,0,0,1-1.29-.2c-.94-1.1-2.14-.57-3.24-.68-2.7-.27-5.38.31-8.13-.88-2.21-.95-4.59.64-6.85,1.31-1.05.32-2.57.91-3.19.46-1.84-1.34-3.77-.81-5.66-.87-2.09-.07-4.31.29-5.93-1.35-.89-.9-1.81-.53-2.74-.67-4.45-.64-8.47.84-12.49,2.43-1,.4-2.57.92-3.19.46-2-1.47-4.12-.86-6.16-.86-37.83-.05-75.65,0-113.48-.08-3.19,0-6.52-1.36-9.55-.81-9,1.63-18.08.58-27.11.81s-18,0-27,.06c-4.23,0-8.4-2-12.57-.94-6.51,1.71-13.07.6-19.6.87-2,.09-4.23.72-6.12-.89a2.2,2.2,0,0,0-1.94,0c-3.6,1.75-7.4.76-11.11.92-3.49.16-7,.1-10.49,0-1.4,0-3,.64-4.15-.88-.19-.25-1-.24-1.43-.05-4.41,2-9.07.73-13.59.87-2.67.08-5.3-1.34-8.09-.9-13.14,2.06-26.38.7-39.57.94s-26.66.05-40,.05h-39.5c-13.33,0-26.66,0-40,0-2,0-4.25-.71-6.11.92-.28.25-1,0-1.47,0-2.64.3-4.9-1.86-7.91-.57-2.24,1-5.15.54-7.76.52-1.55,0-3.34.73-4.61-.93-.12-.16-.69-.13-1,0-4.42,1.89-9.06.76-13.59.94s-9.33,0-14,0c-1,0-2,.06-3,0s-2.21.34-3.26-.68c-.41-.4-1.73.07-2.62.21s-1.71.69-2.26.43c-3.12-1.52-6.11.51-9.21.15a85.3,85.3,0,0,0-10-.09H1571c-3.34,0-6.68.18-10-.09-1.26-.1-2.22,1.59-3.78.2-.73-.66-2.56-.11-3.89-.11-3.17,0-6.34-.13-9.5,0s-6.06.89-9.08.88c-3.7,0-7.37.32-11.15-.71a15.53,15.53,0,0,0-8.12.47,16.74,16.74,0,0,1-9.67-.23,11.12,11.12,0,0,0-8,.2c-.7.3-1.84.58-2.3.24-2-1.48-3.79-1.23-5.84-.15a6.69,6.69,0,0,1-2.89.25h-30.49c-3.07,0-5.92-1.57-9.09-1-10.64,1.82-21.38.72-32.07,1a14.36,14.36,0,0,0-2.25.59c-.93.18-2.12.67-2.8.3-2.8-1.52-5.75-.87-8.62-.88-13-.08-26-.14-39,0-3.35.05-6.89-1.2-10.11.89-.24.15-.86-.24-1.29-.42-2-.87-4-.59-6.07-.09s-4.48,1.09-6.21.36a13.72,13.72,0,0,0-5.66-.78q-21.49-.07-43,0c-2.7,0-5.49-.68-8.13.88a3.81,3.81,0,0,1-3.39,0c-2.24-1.59-4.18-1.21-6.24.09-2.08-1.57-4.79,1.48-6.81-.91-.22-.25-1-.08-1.44-.08-5,0-10.13-.72-15,.15-8.39,1.52-16.75.35-25.11.83-3.57.21-7-1.65-10.58-1-1.54.29-3,.78-4.59.95a24,24,0,0,1-4.49,0,27.55,27.55,0,0,1-6.16-.74c-2.22-.68-5.12-1-7.6.58-.71.46-1.93.17-2.91.17-4.84,0-9.67.1-14.5,0-1.87,0-3.71-.75-5.59-.91s-4,.22-6-.1c-2.7-.43-5,1-7.59,1.19-1.61.14-2.87-1.51-4.77-.27-1.16.76-3.24.14-4.91.14h-5.5c-1.66,0-3.34.1-5,0-2.21-.17-4.4.42-6.67-.81-1.29-.69-3.43.22-5.19.38s-3.61.69-5.3.39c-5.88-1-5.86-1.13-11.19.05a3,3,0,0,1-2,0,6.29,6.29,0,0,0-7.2.06c-3.86-.53-7.86,1-11.67-.8a2.63,2.63,0,0,0-2.28.06,2.52,2.52,0,0,1-3.85-.19,1.64,1.64,0,0,0-1.44,0c-3.92,1.88-8.07.88-12.1.92-14.83.13-29.66-.1-44.49.14-4.12.07-8-1.18-12.08-1.1s-8-.07-12,.05c-2,.06-4.13-.53-6.16.85-.87.59-3.33.49-3.72-.13-1.25-2-2.41.49-3.67-.29a5.52,5.52,0,0,0-3.77-.41c-8.32,2-16.74.54-25.1.87-2.34.1-4.72-.61-7.08-.92-2.2-.3-4.61.79-6.59-1-5.2.52-10.39-.59-15.68.69-3.56.86-7.52.11-11.31.09-1-1.37-2.43-.75-3.67-.75-8.83-.05-17.66-.09-26.49,0-2,0-4,.76-6.09.92s-4.49.54-6.46-.09c-2.89-.91-6-1.54-8.56-.68s-5.11.71-7.65.74c-2,0-4.27.78-6.1-.91-.18-.16-.67.06-1,0-1.91-.59-3.77,2.69-5.7.08-2.16,0-4.31-.06-6.47-.07s-4.34-.08-6.5,0c-4.48.2-9-.64-13.44.63-4.51-1.45-9.15-.41-13.73-.59-2-.07-4.26-.85-6.11.9a1.5,1.5,0,0,1-1.44,0c-2.39-1.7-5.07-.87-7.61-.92-6.5-.12-13-.09-19.5,0-2.21,0-4.54-.6-6.62.92a2.57,2.57,0,0,1-2,0c-6.11-2.13-12.41-.43-18.59-1-3.71,2.13-8-.08-11.81,1.66-.23.11-.71-.25-1-.44a10.86,10.86,0,0,0-6-1.26c-5.33.11-10.67,0-16,.07-1.39,0-2.92-.57-4.2.79-.34.37-1.7.26-2.24-.12-1.84-1.3-3.84-.41-5.73-.7-2.49,2.36-6.13-.24-8.7,1.95a1.42,1.42,0,0,1-1.39-.07c-1-1.37-2.43-.94-3.66-.84-2,.17-4.41,1.43-6,.75-2.15-.92-4.13-.67-6.17-.75-1.38-.05-3-.63-4.16.86-.26.33-1.29.2-1.92.07-5-1.05-4.93-.68-10.19-.13a29.31,29.31,0,0,1-9.7-.44c-5-1.15-10.28-1.05-15.45-1.35-.84-.05-1.75.94-2.58.87-1.42-.11-2.43.82-3.6,1s-2.4-.9-3.57-.84c-5.23.3-10.53-1-15.7.68-2.55-1.35-5.31-.63-8-.69-1.39,0-2.76-.32-4.23.68-1,.7-3,.59-4.34.2-4.44-1.3-8.79-1.6-13.2,0a6,6,0,0,1-2,0c-2.34,0-4.68.11-7,0-3-.18-6,.24-9.15-.77-2-.65-4.85-1-7.16.5-.35.24-1.1-.11-1.67-.15-1.9-.14-4-.76-5.66-.22-1.23.39-1.82,0-2.83-.1A40.92,40.92,0,0,0,523.73,21c-6.55,1-9.78,1.23-16.19-.08a24.78,24.78,0,0,0-3,0c-3.2-.27-6.41.52-9.65-.83a4.9,4.9,0,0,0-5.15.6c-.47.43-1.56.21-2.37.24-1,0-2-.06-3,0-3.86.31-7.68-.08-11.63.77-4.82,1-9.86-.18-14.8-1.28a30,30,0,0,0-10.65,0c-1.19.17-3-.23-3.63.6-1.27,1.57-1.85-.34-2.8-.18-2.51.42-5-.08-7.65.82-1.94.67-4.72-.29-6.84-1.18a8.3,8.3,0,0,0-5.69-.39,11.16,11.16,0,0,1-3.65.78c-7.67,0-15.33.08-23,0a45.68,45.68,0,0,1-6.08-.95c-4.77-.72-9.36,1.08-14.08,1-1.23,0-3.85.2-4.5-.39a2.91,2.91,0,0,0-3.21-.54c-2.64,1.56-5.43.76-8.13.87-3.66.14-7.49-.62-11,.17-6.72,1.54-13.42.47-20.11.81a9.27,9.27,0,0,1-4.23-.61,8.77,8.77,0,0,0-6.2,0,10.31,10.31,0,0,1-4.24.58q-10.5.12-21,0c-1.55,0-3,.19-4.69-.75-1.3-.75-3.63-.38-5.2.24a8.33,8.33,0,0,1-3.27.53q-46,0-92,0c-1.28,0-2.56-.69-3.61-.79-2.49-.25-5.17-.88-7.68.53a3.26,3.26,0,0,1-2.82.19c-2-1.46-4.1-.71-6.15-.91-2.21-.22-4.45.39-6.63-.91-1.28-.76-6.37.2-8.54.9a18.48,18.48,0,0,1-12.14-.05c-3-1.15-5.77-2.93-9.35-1.08-1.57.82-3.93,0-5.93.17-1.55.1-3.25-.64-4.66.88-.38.42-1.7.33-2.41,0-4.94-2-10.15-1.17-15.07-.72-4,.38-8.07.58-12.11.8-1.21.07-2.38.86-3.59.91-2.55.1-5.1.27-7.61-.87-1.37-.62-2.82-1.3-4.72-.23-1.39.78-3.58.18-5.42.14-.45,0-1.1-.06-1.32-.35A4.55,4.55,0,0,0,62,18.83c-.67.05-1.4-.58-2.08-.93a1.15,1.15,0,0,1,0-2.18A7.15,7.15,0,0,1,62,15Z"/><path class="cls-1" d="M2243.6,18.89c-4.5,0-9,0-13.48,0-1.23,0-2.3-.11-3-1.21-.35-.55-1-1.52-.81-1.68a3.25,3.25,0,0,1,2-1.07c4.15-.09,8.32,0,12.48,0,2.82,0,5.65-.05,8.48,0,2.59.05,4.85-1.64,7.59-1.07,2.1.43,2.79.82,2.94,3,.08,1.26.07,2.16-1.73,2.11C2253.25,18.81,2248.42,18.89,2243.6,18.89Z"/><path class="cls-1" d="M23.92,14.92H38.84a2.05,2.05,0,0,1,2.29,2,2,2,0,0,1-2.28,2c-4.9-.33-9.84.73-14.7-.54-.23-.06-.62-.24-.68-.16C22,20,19.71,18.05,18,19.49s-4.55-.76-6.33,1.35a4.43,4.43,0,0,1-3.48-4.43c0-1,.14-1.52,1.3-1.51C14.3,14.94,19.11,14.92,23.92,14.92Z"/><path class="cls-1" d="M2215.08,18.32c-1-.59-2.11-1.16-3.15-1.79s-1.62-2-1-2.89a3,3,0,0,1,2.95-.62c2.51,1.55,4.78,1,7.17-.06a1.59,1.59,0,0,1,1.38.17,2.22,2.22,0,0,1,.36,1.24C2220.18,15.32,2218.53,18.26,2215.08,18.32Z"/><path class="cls-1" d="M54.74,21.17a26.37,26.37,0,0,0-2.73-1,10.94,10.94,0,0,0-2.84-.3c-.88,0-1.81,1.47-2.58-.16-.24-.5,0-.3,1.88-1.92,2.17-1.86,4.15-2.77,6.75-1,.46.32,1.65.11,1.74.39a4.28,4.28,0,0,1,.14,2.81C56.82,20.66,55.61,20.81,54.74,21.17Z"/><path class="cls-1" d="M1565.67,10.94a9,9,0,0,1,1.47,0,2.5,2.5,0,0,1,.78.48c-.26.16-.51.45-.78.47a22.34,22.34,0,0,1-3,0,4.9,4.9,0,0,1-1.27-.47,6.13,6.13,0,0,1,1.27-.48A8.11,8.11,0,0,1,1565.67,10.94Z"/><path class="cls-1" d="M1510.29,11.08l.64.36c-.11.11-.25.33-.33.31a3.11,3.11,0,0,1-.67-.31Z"/></svg>