<?xml version="1.0" encoding="UTF-8" standalone="no"?>
<!DOCTYPE svg PUBLIC "-//W3C//DTD SVG 1.1//EN" "http://www.w3.org/Graphics/SVG/1.1/DTD/svg11.dtd">
<svg width="100%" height="100%" viewBox="0 0 122 12" version="1.1" xmlns="http://www.w3.org/2000/svg" xmlns:xlink="http://www.w3.org/1999/xlink" xml:space="preserve" xmlns:serif="http://www.serif.com/" style="fill-rule:evenodd;clip-rule:evenodd;stroke-linejoin:round;stroke-miterlimit:2;">
    <g transform="matrix(1,0,0,1,-189.153,-268.653)">
        <path d="M190.5,274.644C190.5,274.34 190.532,274.044 190.596,273.756C190.66,273.468 190.764,273.212 190.908,272.988C191.052,272.764 191.244,272.584 191.484,272.448C191.724,272.312 192.016,272.244 192.36,272.244C192.712,272.244 193.012,272.31 193.26,272.442C193.508,272.574 193.71,272.748 193.866,272.964C194.022,273.18 194.136,273.43 194.208,273.714C194.28,273.998 194.316,274.292 194.316,274.596C194.316,274.884 194.282,275.168 194.214,275.448C194.146,275.728 194.036,275.978 193.884,276.198C193.732,276.418 193.536,276.596 193.296,276.732C193.056,276.868 192.764,276.936 192.42,276.936C192.092,276.936 191.806,276.872 191.562,276.744C191.318,276.616 191.118,276.444 190.962,276.228C190.806,276.012 190.69,275.766 190.614,275.49C190.538,275.214 190.5,274.932 190.5,274.644ZM195.3,277.692L195.3,269.124L194.28,269.124L194.28,272.316L194.256,272.316C194.144,272.132 194.006,271.978 193.842,271.854C193.678,271.73 193.504,271.63 193.32,271.554C193.136,271.478 192.952,271.424 192.768,271.392C192.584,271.36 192.412,271.344 192.252,271.344C191.78,271.344 191.366,271.43 191.01,271.602C190.654,271.774 190.358,272.006 190.122,272.298C189.886,272.59 189.71,272.932 189.594,273.324C189.478,273.716 189.42,274.132 189.42,274.572C189.42,275.012 189.48,275.428 189.6,275.82C189.72,276.212 189.898,276.556 190.134,276.852C190.37,277.148 190.666,277.384 191.022,277.56C191.378,277.736 191.796,277.824 192.276,277.824C192.708,277.824 193.104,277.748 193.464,277.596C193.824,277.444 194.088,277.196 194.256,276.852L194.28,276.852L194.28,277.692L195.3,277.692Z" style="fill-rule:nonzero;"/>
        <path d="M194.013,271.649L194.003,271.641C193.82,271.503 193.627,271.392 193.422,271.308C193.219,271.224 193.016,271.165 192.814,271.129C192.613,271.094 192.426,271.077 192.252,271.077C191.736,271.077 191.283,271.174 190.894,271.362C190.501,271.552 190.175,271.808 189.915,272.13C189.657,272.449 189.465,272.821 189.338,273.248C189.215,273.664 189.153,274.105 189.153,274.572C189.153,275.04 189.218,275.482 189.345,275.898C189.475,276.324 189.669,276.697 189.925,277.018C190.186,277.344 190.511,277.605 190.904,277.799C191.294,277.992 191.751,278.091 192.276,278.091C192.746,278.091 193.176,278.007 193.568,277.842C193.734,277.772 193.882,277.684 194.013,277.579L194.013,277.692C194.013,277.839 194.133,277.959 194.28,277.959L195.3,277.959C195.447,277.959 195.567,277.839 195.567,277.692L195.567,269.124C195.567,268.977 195.447,268.857 195.3,268.857L194.28,268.857C194.133,268.857 194.013,268.977 194.013,269.124L194.013,271.649ZM194.187,276.978C194.212,276.938 194.235,276.896 194.256,276.852L194.28,276.852L194.28,277.692L195.3,277.692L195.3,269.124L194.28,269.124L194.28,272.316L194.256,272.316C194.144,272.132 194.006,271.978 193.842,271.854C193.678,271.73 193.504,271.63 193.32,271.554C193.136,271.478 192.952,271.424 192.768,271.392C192.584,271.36 192.412,271.344 192.252,271.344C191.78,271.344 191.366,271.43 191.01,271.602C190.654,271.774 190.358,272.006 190.122,272.298C189.886,272.59 189.71,272.932 189.594,273.324C189.478,273.716 189.42,274.132 189.42,274.572C189.42,275.012 189.48,275.428 189.6,275.82C189.72,276.212 189.898,276.556 190.134,276.852C190.37,277.148 190.666,277.384 191.022,277.56C191.378,277.736 191.796,277.824 192.276,277.824C192.708,277.824 193.104,277.748 193.464,277.596C193.767,277.468 194.002,277.272 194.169,277.008L194.229,277.068C194.217,277.044 194.202,277.013 194.187,276.978ZM190.5,274.644C190.5,274.34 190.532,274.044 190.596,273.756C190.66,273.468 190.764,273.212 190.908,272.988C191.052,272.764 191.244,272.584 191.484,272.448C191.724,272.312 192.016,272.244 192.36,272.244C192.712,272.244 193.012,272.31 193.26,272.442C193.508,272.574 193.71,272.748 193.866,272.964C194.022,273.18 194.136,273.43 194.208,273.714C194.28,273.998 194.316,274.292 194.316,274.596C194.316,274.884 194.282,275.168 194.214,275.448C194.146,275.728 194.036,275.978 193.884,276.198C193.732,276.418 193.536,276.596 193.296,276.732C193.056,276.868 192.764,276.936 192.42,276.936C192.092,276.936 191.806,276.872 191.562,276.744C191.318,276.616 191.118,276.444 190.962,276.228C190.806,276.012 190.69,275.766 190.614,275.49C190.538,275.214 190.5,274.932 190.5,274.644ZM190.767,274.644C190.767,274.36 190.796,274.083 190.856,273.814C190.913,273.558 191.005,273.331 191.132,273.132C191.253,272.944 191.414,272.794 191.615,272.68C191.819,272.565 192.068,272.511 192.36,272.511C192.663,272.511 192.921,272.564 193.135,272.677C193.345,272.789 193.517,272.937 193.65,273.12C193.787,273.31 193.886,273.53 193.95,273.78C194.016,274.042 194.049,274.315 194.049,274.596C194.049,274.863 194.018,275.126 193.955,275.385C193.895,275.632 193.799,275.853 193.665,276.046C193.535,276.233 193.369,276.384 193.165,276.5C192.961,276.615 192.712,276.669 192.42,276.669C192.14,276.669 191.894,276.617 191.686,276.508C191.48,276.4 191.31,276.255 191.178,276.072C191.04,275.881 190.938,275.663 190.871,275.419C190.801,275.166 190.767,274.908 190.767,274.644Z" style="fill:white;"/>
    </g>
    <g transform="matrix(1,0,0,1,-189.153,-268.653)">
        <rect x="196.932" y="269.124" width="1.02" height="8.568"/>
        <path d="M198.219,269.124C198.219,268.977 198.099,268.857 197.952,268.857L196.932,268.857C196.785,268.857 196.665,268.977 196.665,269.124L196.665,277.692C196.665,277.839 196.785,277.959 196.932,277.959L197.952,277.959C198.099,277.959 198.219,277.839 198.219,277.692L198.219,269.124ZM197.952,269.124L196.932,269.124L196.932,277.692L197.952,277.692L197.952,269.124Z" style="fill:white;"/>
    </g>
    <g transform="matrix(1,0,0,1,-189.153,-268.653)">
        <path d="M200.28,274.644C200.28,274.34 200.312,274.044 200.376,273.756C200.44,273.468 200.544,273.212 200.688,272.988C200.832,272.764 201.024,272.584 201.264,272.448C201.504,272.312 201.796,272.244 202.14,272.244C202.492,272.244 202.792,272.31 203.04,272.442C203.288,272.574 203.49,272.748 203.646,272.964C203.802,273.18 203.916,273.43 203.988,273.714C204.06,273.998 204.096,274.292 204.096,274.596C204.096,274.884 204.062,275.168 203.994,275.448C203.926,275.728 203.816,275.978 203.664,276.198C203.512,276.418 203.316,276.596 203.076,276.732C202.836,276.868 202.544,276.936 202.2,276.936C201.872,276.936 201.586,276.872 201.342,276.744C201.098,276.616 200.898,276.444 200.742,276.228C200.586,276.012 200.47,275.766 200.394,275.49C200.318,275.214 200.28,274.932 200.28,274.644ZM205.08,277.692L205.08,269.124L204.06,269.124L204.06,272.316L204.036,272.316C203.924,272.132 203.786,271.978 203.622,271.854C203.458,271.73 203.284,271.63 203.1,271.554C202.916,271.478 202.732,271.424 202.548,271.392C202.364,271.36 202.192,271.344 202.032,271.344C201.56,271.344 201.146,271.43 200.79,271.602C200.434,271.774 200.138,272.006 199.902,272.298C199.666,272.59 199.49,272.932 199.374,273.324C199.258,273.716 199.2,274.132 199.2,274.572C199.2,275.012 199.26,275.428 199.38,275.82C199.5,276.212 199.678,276.556 199.914,276.852C200.15,277.148 200.446,277.384 200.802,277.56C201.158,277.736 201.576,277.824 202.056,277.824C202.488,277.824 202.884,277.748 203.244,277.596C203.604,277.444 203.868,277.196 204.036,276.852L204.06,276.852L204.06,277.692L205.08,277.692Z" style="fill-rule:nonzero;"/>
        <path d="M203.793,271.649L203.783,271.641C203.6,271.503 203.407,271.392 203.202,271.308C202.999,271.224 202.796,271.165 202.594,271.129C202.393,271.094 202.206,271.077 202.032,271.077C201.516,271.077 201.063,271.174 200.674,271.362C200.281,271.552 199.955,271.808 199.695,272.13C199.437,272.449 199.245,272.821 199.118,273.248C198.995,273.664 198.933,274.105 198.933,274.572C198.933,275.04 198.998,275.482 199.125,275.898C199.255,276.324 199.449,276.697 199.705,277.018C199.966,277.344 200.291,277.605 200.684,277.799C201.074,277.992 201.531,278.091 202.056,278.091C202.526,278.091 202.956,278.007 203.348,277.842C203.514,277.772 203.662,277.684 203.793,277.579L203.793,277.692C203.793,277.839 203.913,277.959 204.06,277.959L205.08,277.959C205.227,277.959 205.347,277.839 205.347,277.692L205.347,269.124C205.347,268.977 205.227,268.857 205.08,268.857L204.06,268.857C203.913,268.857 203.793,268.977 203.793,269.124L203.793,271.649ZM203.963,276.986C203.989,276.943 204.013,276.898 204.036,276.852L204.06,276.852L204.06,277.692L205.08,277.692L205.08,269.124L204.06,269.124L204.06,272.316L204.036,272.316C203.924,272.132 203.786,271.978 203.622,271.854C203.458,271.73 203.284,271.63 203.1,271.554C202.916,271.478 202.732,271.424 202.548,271.392C202.364,271.36 202.192,271.344 202.032,271.344C201.56,271.344 201.146,271.43 200.79,271.602C200.434,271.774 200.138,272.006 199.902,272.298C199.666,272.59 199.49,272.932 199.374,273.324C199.258,273.716 199.2,274.132 199.2,274.572C199.2,275.012 199.26,275.428 199.38,275.82C199.5,276.212 199.678,276.556 199.914,276.852C200.15,277.148 200.446,277.384 200.802,277.56C201.158,277.736 201.576,277.824 202.056,277.824C202.488,277.824 202.884,277.748 203.244,277.596C203.547,277.468 203.782,277.272 203.949,277.008L204.002,277.06C203.99,277.039 203.976,277.014 203.963,276.986ZM200.28,274.644C200.28,274.34 200.312,274.044 200.376,273.756C200.44,273.468 200.544,273.212 200.688,272.988C200.832,272.764 201.024,272.584 201.264,272.448C201.504,272.312 201.796,272.244 202.14,272.244C202.492,272.244 202.792,272.31 203.04,272.442C203.288,272.574 203.49,272.748 203.646,272.964C203.802,273.18 203.916,273.43 203.988,273.714C204.06,273.998 204.096,274.292 204.096,274.596C204.096,274.884 204.062,275.168 203.994,275.448C203.926,275.728 203.816,275.978 203.664,276.198C203.512,276.418 203.316,276.596 203.076,276.732C202.836,276.868 202.544,276.936 202.2,276.936C201.872,276.936 201.586,276.872 201.342,276.744C201.098,276.616 200.898,276.444 200.742,276.228C200.586,276.012 200.47,275.766 200.394,275.49C200.318,275.214 200.28,274.932 200.28,274.644ZM200.547,274.644C200.547,274.36 200.576,274.083 200.636,273.814C200.693,273.558 200.785,273.331 200.912,273.132C201.033,272.944 201.194,272.794 201.395,272.68C201.599,272.565 201.848,272.511 202.14,272.511C202.443,272.511 202.701,272.564 202.915,272.677C203.125,272.789 203.297,272.937 203.43,273.12C203.567,273.31 203.666,273.53 203.73,273.78C203.796,274.042 203.829,274.315 203.829,274.596C203.829,274.863 203.798,275.126 203.735,275.385C203.675,275.632 203.579,275.853 203.445,276.046C203.315,276.233 203.149,276.384 202.945,276.5C202.741,276.615 202.492,276.669 202.2,276.669C201.92,276.669 201.674,276.617 201.466,276.508C201.26,276.4 201.09,276.255 200.958,276.072C200.82,275.881 200.718,275.663 200.651,275.419C200.581,275.166 200.547,274.908 200.547,274.644Z" style="fill:white;"/>
    </g>
    <g transform="matrix(1,0,0,1,-189.153,-268.653)">
        <path d="M211.788,277.692L211.788,271.488L210.768,271.488L210.768,274.992C210.768,275.272 210.73,275.53 210.654,275.766C210.578,276.002 210.464,276.208 210.312,276.384C210.16,276.56 209.97,276.696 209.742,276.792C209.514,276.888 209.244,276.936 208.932,276.936C208.54,276.936 208.232,276.824 208.008,276.6C207.784,276.376 207.672,276.072 207.672,275.688L207.672,271.488L206.652,271.488L206.652,275.568C206.652,275.904 206.686,276.21 206.754,276.486C206.822,276.762 206.94,277 207.108,277.2C207.276,277.4 207.496,277.554 207.768,277.662C208.04,277.77 208.38,277.824 208.788,277.824C209.244,277.824 209.64,277.734 209.976,277.554C210.312,277.374 210.588,277.092 210.804,276.708L210.828,276.708L210.828,277.692L211.788,277.692Z" style="fill-rule:nonzero;"/>
        <path d="M210.561,277.457L210.561,277.692C210.561,277.839 210.681,277.959 210.828,277.959L211.788,277.959C211.935,277.959 212.055,277.839 212.055,277.692L212.055,271.488C212.055,271.341 211.935,271.221 211.788,271.221L210.768,271.221C210.621,271.221 210.501,271.341 210.501,271.488L210.501,274.992C210.501,275.242 210.468,275.473 210.4,275.684C210.336,275.885 210.239,276.06 210.11,276.21C209.985,276.355 209.827,276.467 209.639,276.546C209.44,276.63 209.204,276.669 208.932,276.669C208.621,276.669 208.374,276.589 208.197,276.411C208.02,276.234 207.939,275.991 207.939,275.688C207.939,275.688 207.939,271.488 207.939,271.488C207.939,271.341 207.819,271.221 207.672,271.221L206.652,271.221C206.505,271.221 206.385,271.341 206.385,271.488L206.385,275.568C206.385,275.927 206.422,276.255 206.495,276.55C206.573,276.868 206.71,277.141 206.904,277.372C207.099,277.604 207.354,277.784 207.67,277.91C207.968,278.028 208.34,278.091 208.788,278.091C209.293,278.091 209.73,277.988 210.102,277.789C210.268,277.7 210.421,277.59 210.561,277.457ZM210.754,276.793C210.771,276.765 210.788,276.737 210.804,276.708L210.828,276.708L210.828,277.692L211.788,277.692L211.788,271.488L210.768,271.488L210.768,274.992C210.768,275.272 210.73,275.53 210.654,275.766C210.578,276.002 210.464,276.208 210.312,276.384C210.16,276.56 209.97,276.696 209.742,276.792C209.514,276.888 209.244,276.936 208.932,276.936C208.54,276.936 208.232,276.824 208.008,276.6C207.784,276.376 207.672,276.072 207.672,275.688L207.672,271.488L206.652,271.488L206.652,275.568C206.652,275.904 206.686,276.21 206.754,276.486C206.822,276.762 206.94,277 207.108,277.2C207.276,277.4 207.496,277.554 207.768,277.662C208.04,277.77 208.38,277.824 208.788,277.824C209.244,277.824 209.64,277.734 209.976,277.554C210.266,277.398 210.512,277.167 210.712,276.859L210.793,276.94C210.783,276.906 210.767,276.853 210.754,276.793Z" style="fill:white;"/>
    </g>
    <g transform="matrix(1,0,0,1,-189.153,-268.653)">
        <path d="M213.36,271.488L213.36,280.056L214.38,280.056L214.38,276.864L214.404,276.864C214.516,277.048 214.654,277.202 214.818,277.326C214.982,277.45 215.156,277.548 215.34,277.62C215.524,277.692 215.71,277.744 215.898,277.776C216.086,277.808 216.256,277.824 216.408,277.824C216.88,277.824 217.294,277.74 217.65,277.572C218.006,277.404 218.302,277.174 218.538,276.882C218.774,276.59 218.95,276.248 219.066,275.856C219.182,275.464 219.24,275.048 219.24,274.608C219.24,274.168 219.18,273.752 219.06,273.36C218.94,272.968 218.762,272.622 218.526,272.322C218.29,272.022 217.994,271.784 217.638,271.608C217.282,271.432 216.864,271.344 216.384,271.344C215.952,271.344 215.556,271.422 215.196,271.578C214.836,271.734 214.572,271.984 214.404,272.328L214.38,272.328L214.38,271.488L213.36,271.488ZM218.16,274.536C218.16,274.84 218.128,275.136 218.064,275.424C218,275.712 217.896,275.968 217.752,276.192C217.608,276.416 217.418,276.596 217.182,276.732C216.946,276.868 216.652,276.936 216.3,276.936C215.948,276.936 215.648,276.87 215.4,276.738C215.152,276.606 214.95,276.432 214.794,276.216C214.638,276 214.524,275.75 214.452,275.466C214.38,275.182 214.344,274.888 214.344,274.584C214.344,274.296 214.378,274.012 214.446,273.732C214.514,273.452 214.624,273.202 214.776,272.982C214.928,272.762 215.124,272.584 215.364,272.448C215.604,272.312 215.896,272.244 216.24,272.244C216.568,272.244 216.854,272.308 217.098,272.436C217.342,272.564 217.542,272.736 217.698,272.952C217.854,273.168 217.97,273.414 218.046,273.69C218.122,273.966 218.16,274.248 218.16,274.536Z" style="fill-rule:nonzero;"/>
        <path d="M214.647,271.599L214.647,271.488C214.647,271.341 214.527,271.221 214.38,271.221L213.36,271.221C213.213,271.221 213.093,271.341 213.093,271.488L213.093,280.056C213.093,280.203 213.213,280.323 213.36,280.323L214.38,280.323C214.527,280.323 214.647,280.203 214.647,280.056L214.647,277.531L214.657,277.539C214.841,277.678 215.036,277.788 215.243,277.868C215.444,277.947 215.648,278.004 215.853,278.039C216.058,278.074 216.243,278.091 216.408,278.091C216.923,278.091 217.375,277.997 217.764,277.813C218.157,277.627 218.484,277.373 218.745,277.05C219.003,276.731 219.195,276.359 219.322,275.932C219.445,275.516 219.507,275.075 219.507,274.608C219.507,274.14 219.442,273.698 219.315,273.282C219.185,272.857 218.991,272.482 218.736,272.157C218.475,271.826 218.149,271.563 217.756,271.369C217.366,271.176 216.909,271.077 216.384,271.077C215.913,271.077 215.482,271.163 215.09,271.333C214.925,271.405 214.777,271.493 214.647,271.599ZM214.485,276.986C214.581,277.117 214.692,277.23 214.818,277.326C214.982,277.45 215.156,277.548 215.34,277.62C215.524,277.692 215.71,277.744 215.898,277.776C216.086,277.808 216.256,277.824 216.408,277.824C216.88,277.824 217.294,277.74 217.65,277.572C218.006,277.404 218.302,277.174 218.538,276.882C218.774,276.59 218.95,276.248 219.066,275.856C219.182,275.464 219.24,275.048 219.24,274.608C219.24,274.168 219.18,273.752 219.06,273.36C218.94,272.968 218.762,272.622 218.526,272.322C218.29,272.022 217.994,271.784 217.638,271.608C217.282,271.432 216.864,271.344 216.384,271.344C215.952,271.344 215.556,271.422 215.196,271.578C214.836,271.734 214.572,271.984 214.404,272.328L214.38,272.328L214.38,271.488L213.36,271.488L213.36,280.056L214.38,280.056L214.38,276.864L214.404,276.864C214.429,276.904 214.454,276.943 214.482,276.981C214.465,277.017 214.449,277.05 214.435,277.075L214.485,276.986ZM218.16,274.536C218.16,274.84 218.128,275.136 218.064,275.424C218,275.712 217.896,275.968 217.752,276.192C217.608,276.416 217.418,276.596 217.182,276.732C216.946,276.868 216.652,276.936 216.3,276.936C215.948,276.936 215.648,276.87 215.4,276.738C215.152,276.606 214.95,276.432 214.794,276.216C214.638,276 214.524,275.75 214.452,275.466C214.38,275.182 214.344,274.888 214.344,274.584C214.344,274.296 214.378,274.012 214.446,273.732C214.514,273.452 214.624,273.202 214.776,272.982C214.928,272.762 215.124,272.584 215.364,272.448C215.604,272.312 215.896,272.244 216.24,272.244C216.568,272.244 216.854,272.308 217.098,272.436C217.342,272.564 217.542,272.736 217.698,272.952C217.854,273.168 217.97,273.414 218.046,273.69C218.122,273.966 218.16,274.248 218.16,274.536ZM217.893,274.536C217.893,274.82 217.864,275.097 217.804,275.366C217.747,275.622 217.655,275.849 217.528,276.048C217.407,276.236 217.247,276.387 217.049,276.501C216.849,276.616 216.598,276.669 216.3,276.669C215.997,276.669 215.739,276.616 215.525,276.503C215.315,276.391 215.143,276.243 215.01,276.06C214.873,275.87 214.774,275.65 214.71,275.4C214.644,275.138 214.611,274.865 214.611,274.584C214.611,274.317 214.642,274.054 214.705,273.795C214.765,273.548 214.861,273.327 214.995,273.134C215.125,272.947 215.291,272.796 215.495,272.68C215.699,272.565 215.948,272.511 216.24,272.511C216.52,272.511 216.766,272.563 216.974,272.672C217.18,272.78 217.35,272.925 217.482,273.108C217.62,273.299 217.722,273.517 217.789,273.761C217.859,274.014 217.893,274.272 217.893,274.536Z" style="fill:white;"/>
    </g>
    <g transform="matrix(1,0,0,1,-189.153,-268.653)">
        <path d="M221.184,274.596C221.184,274.22 221.234,273.886 221.334,273.594C221.434,273.302 221.572,273.056 221.748,272.856C221.924,272.656 222.13,272.504 222.366,272.4C222.602,272.296 222.852,272.244 223.116,272.244C223.38,272.244 223.63,272.296 223.866,272.4C224.102,272.504 224.308,272.656 224.484,272.856C224.66,273.056 224.798,273.302 224.898,273.594C224.998,273.886 225.048,274.22 225.048,274.596C225.048,274.972 224.998,275.306 224.898,275.598C224.798,275.89 224.66,276.134 224.484,276.33C224.308,276.526 224.102,276.676 223.866,276.78C223.63,276.884 223.38,276.936 223.116,276.936C222.852,276.936 222.602,276.884 222.366,276.78C222.13,276.676 221.924,276.526 221.748,276.33C221.572,276.134 221.434,275.89 221.334,275.598C221.234,275.306 221.184,274.972 221.184,274.596ZM220.104,274.596C220.104,275.052 220.168,275.476 220.296,275.868C220.424,276.26 220.616,276.602 220.872,276.894C221.128,277.186 221.444,277.414 221.82,277.578C222.196,277.742 222.628,277.824 223.116,277.824C223.612,277.824 224.046,277.742 224.418,277.578C224.79,277.414 225.104,277.186 225.36,276.894C225.616,276.602 225.808,276.26 225.936,275.868C226.064,275.476 226.128,275.052 226.128,274.596C226.128,274.14 226.064,273.714 225.936,273.318C225.808,272.922 225.616,272.578 225.36,272.286C225.104,271.994 224.79,271.764 224.418,271.596C224.046,271.428 223.612,271.344 223.116,271.344C222.628,271.344 222.196,271.428 221.82,271.596C221.444,271.764 221.128,271.994 220.872,272.286C220.616,272.578 220.424,272.922 220.296,273.318C220.168,273.714 220.104,274.14 220.104,274.596Z" style="fill-rule:nonzero;"/>
        <path d="M219.837,274.596C219.837,275.082 219.906,275.533 220.043,275.951C220.182,276.378 220.392,276.751 220.671,277.07C220.953,277.391 221.3,277.642 221.713,277.822C222.12,278 222.588,278.091 223.116,278.091C223.653,278.091 224.123,278 224.526,277.822C224.934,277.642 225.279,277.391 225.561,277.07C225.84,276.751 226.05,276.378 226.189,275.951C226.326,275.533 226.395,275.082 226.395,274.596C226.395,274.111 226.326,273.657 226.19,273.236C226.05,272.804 225.84,272.429 225.561,272.11C225.28,271.79 224.936,271.537 224.528,271.353C224.124,271.171 223.654,271.077 223.116,271.077C222.587,271.077 222.119,271.17 221.711,271.353C221.299,271.537 220.952,271.79 220.671,272.11C220.392,272.429 220.182,272.804 220.042,273.236C219.906,273.657 219.837,274.111 219.837,274.596ZM220.104,274.596C220.104,275.052 220.168,275.476 220.296,275.868C220.424,276.26 220.616,276.602 220.872,276.894C221.128,277.186 221.444,277.414 221.82,277.578C222.196,277.742 222.628,277.824 223.116,277.824C223.612,277.824 224.046,277.742 224.418,277.578C224.79,277.414 225.104,277.186 225.36,276.894C225.616,276.602 225.808,276.26 225.936,275.868C226.064,275.476 226.128,275.052 226.128,274.596C226.128,274.14 226.064,273.714 225.936,273.318C225.808,272.922 225.616,272.578 225.36,272.286C225.104,271.994 224.79,271.764 224.418,271.596C224.046,271.428 223.612,271.344 223.116,271.344C222.628,271.344 222.196,271.428 221.82,271.596C221.444,271.764 221.128,271.994 220.872,272.286C220.616,272.578 220.424,272.922 220.296,273.318C220.168,273.714 220.104,274.14 220.104,274.596ZM221.184,274.596C221.184,274.22 221.234,273.886 221.334,273.594C221.434,273.302 221.572,273.056 221.748,272.856C221.924,272.656 222.13,272.504 222.366,272.4C222.602,272.296 222.852,272.244 223.116,272.244C223.38,272.244 223.63,272.296 223.866,272.4C224.102,272.504 224.308,272.656 224.484,272.856C224.66,273.056 224.798,273.302 224.898,273.594C224.998,273.886 225.048,274.22 225.048,274.596C225.048,274.972 224.998,275.306 224.898,275.598C224.798,275.89 224.66,276.134 224.484,276.33C224.308,276.526 224.102,276.676 223.866,276.78C223.63,276.884 223.38,276.936 223.116,276.936C222.852,276.936 222.602,276.884 222.366,276.78C222.13,276.676 221.924,276.526 221.748,276.33C221.572,276.134 221.434,275.89 221.334,275.598C221.234,275.306 221.184,274.972 221.184,274.596ZM221.451,274.596C221.451,274.253 221.495,273.947 221.586,273.68C221.674,273.424 221.794,273.208 221.948,273.032C222.098,272.862 222.273,272.732 222.474,272.644C222.676,272.555 222.89,272.511 223.116,272.511C223.342,272.511 223.556,272.555 223.758,272.644C223.959,272.732 224.134,272.862 224.284,273.032C224.438,273.208 224.558,273.424 224.646,273.68C224.737,273.947 224.781,274.253 224.781,274.596C224.781,274.939 224.737,275.245 224.646,275.512C224.558,275.767 224.439,275.981 224.286,276.152C224.135,276.319 223.96,276.447 223.758,276.536C223.556,276.625 223.342,276.669 223.116,276.669C222.89,276.669 222.676,276.625 222.474,276.536C222.272,276.447 222.097,276.319 221.946,276.152C221.793,275.981 221.674,275.767 221.586,275.512C221.495,275.245 221.451,274.939 221.451,274.596Z" style="fill:white;"/>
    </g>
    <g transform="matrix(1,0,0,1,-189.153,-268.653)">
        <path d="M228.408,270.372L228.408,269.124L227.388,269.124L227.388,270.372L228.408,270.372ZM227.388,271.488L227.388,277.692L228.408,277.692L228.408,271.488L227.388,271.488Z" style="fill-rule:nonzero;"/>
        <path d="M227.388,271.221C227.241,271.221 227.121,271.341 227.121,271.488L227.121,277.692C227.121,277.839 227.241,277.959 227.388,277.959L228.408,277.959C228.555,277.959 228.675,277.839 228.675,277.692L228.675,271.488C228.675,271.341 228.555,271.221 228.408,271.221L227.388,271.221ZM227.388,271.488L227.388,277.692L228.408,277.692L228.408,271.488L227.388,271.488ZM228.408,270.639C228.555,270.639 228.675,270.519 228.675,270.372L228.675,269.124C228.675,268.977 228.555,268.857 228.408,268.857L227.388,268.857C227.241,268.857 227.121,268.977 227.121,269.124L227.121,270.372C227.121,270.519 227.241,270.639 227.388,270.639L228.408,270.639ZM228.408,270.372L228.408,269.124L227.388,269.124L227.388,270.372L228.408,270.372Z" style="fill:white;"/>
    </g>
    <g transform="matrix(1,0,0,1,-189.153,-268.653)">
        <path d="M229.992,271.488L229.992,277.692L231.012,277.692L231.012,274.188C231.012,273.908 231.05,273.65 231.126,273.414C231.202,273.178 231.316,272.972 231.468,272.796C231.62,272.62 231.81,272.484 232.038,272.388C232.266,272.292 232.536,272.244 232.848,272.244C233.24,272.244 233.548,272.356 233.772,272.58C233.996,272.804 234.108,273.108 234.108,273.492L234.108,277.692L235.128,277.692L235.128,273.612C235.128,273.276 235.094,272.97 235.026,272.694C234.958,272.418 234.84,272.18 234.672,271.98C234.504,271.78 234.284,271.624 234.012,271.512C233.74,271.4 233.4,271.344 232.992,271.344C232.072,271.344 231.4,271.72 230.976,272.472L230.952,272.472L230.952,271.488L229.992,271.488Z" style="fill-rule:nonzero;"/>
        <path d="M231.219,271.722L231.219,271.488C231.219,271.341 231.099,271.221 230.952,271.221L229.992,271.221C229.845,271.221 229.725,271.341 229.725,271.488L229.725,277.692C229.725,277.839 229.845,277.959 229.992,277.959L231.012,277.959C231.159,277.959 231.279,277.839 231.279,277.692L231.279,274.188C231.279,273.938 231.312,273.707 231.38,273.496C231.444,273.295 231.541,273.12 231.67,272.97C231.795,272.825 231.953,272.713 232.141,272.634C232.34,272.55 232.576,272.511 232.848,272.511C233.159,272.511 233.406,272.591 233.583,272.769C233.76,272.946 233.841,273.189 233.841,273.492L233.841,277.692C233.841,277.839 233.961,277.959 234.108,277.959L235.128,277.959C235.275,277.959 235.395,277.839 235.395,277.692L235.395,273.612C235.395,273.253 235.358,272.925 235.285,272.63C235.207,272.312 235.07,272.039 234.876,271.808C234.682,271.577 234.428,271.395 234.114,271.265C233.814,271.142 233.441,271.077 232.992,271.077C232.259,271.077 231.669,271.293 231.219,271.722ZM229.992,271.488L229.992,277.692L231.012,277.692L231.012,274.188C231.012,273.908 231.05,273.65 231.126,273.414C231.202,273.178 231.316,272.972 231.468,272.796C231.62,272.62 231.81,272.484 232.038,272.388C232.266,272.292 232.536,272.244 232.848,272.244C233.24,272.244 233.548,272.356 233.772,272.58C233.996,272.804 234.108,273.108 234.108,273.492L234.108,277.692L235.128,277.692L235.128,273.612C235.128,273.276 235.094,272.97 235.026,272.694C234.958,272.418 234.84,272.18 234.672,271.98C234.504,271.78 234.284,271.624 234.012,271.512C233.74,271.4 233.4,271.344 232.992,271.344C232.072,271.344 231.4,271.72 230.976,272.472L230.952,272.472L230.952,271.488L229.992,271.488Z" style="fill:white;"/>
    </g>
    <g transform="matrix(1,0,0,1,-189.153,-268.653)">
        <path d="M238.08,271.488L238.08,269.628L237.06,269.628L237.06,271.488L236.004,271.488L236.004,272.388L237.06,272.388L237.06,276.336C237.06,276.624 237.088,276.856 237.144,277.032C237.2,277.208 237.286,277.344 237.402,277.44C237.518,277.536 237.67,277.602 237.858,277.638C238.046,277.674 238.272,277.692 238.536,277.692L239.316,277.692L239.316,276.792L238.848,276.792C238.688,276.792 238.558,276.786 238.458,276.774C238.358,276.762 238.28,276.736 238.224,276.696C238.168,276.656 238.13,276.6 238.11,276.528C238.09,276.456 238.08,276.36 238.08,276.24L238.08,272.388L239.316,272.388L239.316,271.488L238.08,271.488Z" style="fill-rule:nonzero;"/>
        <path d="M238.848,276.526L238.49,276.509C238.443,276.504 238.405,276.498 238.379,276.479C238.372,276.474 238.369,276.466 238.367,276.457C238.352,276.403 238.347,276.33 238.347,276.24C238.347,276.24 238.347,272.655 238.347,272.655C238.347,272.655 239.316,272.655 239.316,272.655C239.463,272.655 239.583,272.535 239.583,272.388L239.583,271.488C239.583,271.341 239.463,271.221 239.316,271.221L238.347,271.221L238.347,269.628C238.347,269.481 238.227,269.361 238.08,269.361L237.06,269.361C236.913,269.361 236.793,269.481 236.793,269.628L236.793,271.221C236.793,271.221 236.004,271.221 236.004,271.221C235.857,271.221 235.737,271.341 235.737,271.488L235.737,272.388C235.737,272.535 235.857,272.655 236.004,272.655L236.793,272.655C236.793,272.655 236.793,276.336 236.793,276.336C236.793,276.658 236.827,276.916 236.89,277.113C236.963,277.344 237.08,277.52 237.232,277.645C237.379,277.767 237.57,277.854 237.808,277.9C238.01,277.939 238.252,277.959 238.536,277.959C238.536,277.959 239.316,277.959 239.316,277.959C239.463,277.959 239.583,277.839 239.583,277.692L239.583,276.792L239.316,277.059C239.316,277.059 239.65,276.525 239.305,276.525L238.848,276.526ZM238.08,271.488L238.08,269.628L237.06,269.628L237.06,271.488L236.004,271.488L236.004,272.388L237.06,272.388L237.06,276.336C237.06,276.624 237.088,276.856 237.144,277.032C237.2,277.208 237.286,277.344 237.402,277.44C237.518,277.536 237.67,277.602 237.858,277.638C238.046,277.674 238.272,277.692 238.536,277.692L239.316,277.692L239.316,276.792L238.848,276.792C238.688,276.792 238.558,276.786 238.458,276.774C238.358,276.762 238.28,276.736 238.224,276.696C238.168,276.656 238.13,276.6 238.11,276.528C238.09,276.456 238.08,276.36 238.08,276.24L238.08,272.388L239.316,272.388L239.316,271.488L238.08,271.488Z" style="fill:white;"/>
    </g>
    <g transform="matrix(1,0,0,1,-189.153,-268.653)">
        <path d="M241.068,275.736L240.048,275.736C240.064,276.12 240.144,276.446 240.288,276.714C240.432,276.982 240.624,277.198 240.864,277.362C241.104,277.526 241.38,277.644 241.692,277.716C242.004,277.788 242.332,277.824 242.676,277.824C242.988,277.824 243.302,277.794 243.618,277.734C243.934,277.674 244.218,277.568 244.47,277.416C244.722,277.264 244.926,277.064 245.082,276.816C245.238,276.568 245.316,276.256 245.316,275.88C245.316,275.584 245.258,275.336 245.142,275.136C245.026,274.936 244.874,274.77 244.686,274.638C244.498,274.506 244.282,274.4 244.038,274.32C243.794,274.24 243.544,274.172 243.288,274.116C243.048,274.06 242.808,274.006 242.568,273.954C242.328,273.902 242.112,273.838 241.92,273.762C241.728,273.686 241.57,273.59 241.446,273.474C241.322,273.358 241.26,273.212 241.26,273.036C241.26,272.876 241.3,272.746 241.38,272.646C241.46,272.546 241.564,272.466 241.692,272.406C241.82,272.346 241.962,272.304 242.118,272.28C242.274,272.256 242.428,272.244 242.58,272.244C242.748,272.244 242.914,272.262 243.078,272.298C243.242,272.334 243.392,272.392 243.528,272.472C243.664,272.552 243.776,272.658 243.864,272.79C243.952,272.922 244.004,273.088 244.02,273.288L245.04,273.288C245.016,272.912 244.936,272.598 244.8,272.346C244.664,272.094 244.482,271.894 244.254,271.746C244.026,271.598 243.764,271.494 243.468,271.434C243.172,271.374 242.848,271.344 242.496,271.344C242.224,271.344 241.95,271.378 241.674,271.446C241.398,271.514 241.15,271.618 240.93,271.758C240.71,271.898 240.53,272.08 240.39,272.304C240.25,272.528 240.18,272.796 240.18,273.108C240.18,273.508 240.28,273.82 240.48,274.044C240.68,274.268 240.93,274.442 241.23,274.566C241.53,274.69 241.856,274.786 242.208,274.854C242.56,274.922 242.886,274.998 243.186,275.082C243.486,275.166 243.736,275.276 243.936,275.412C244.136,275.548 244.236,275.748 244.236,276.012C244.236,276.204 244.188,276.362 244.092,276.486C243.996,276.61 243.874,276.704 243.726,276.768C243.578,276.832 243.416,276.876 243.24,276.9C243.064,276.924 242.896,276.936 242.736,276.936C242.528,276.936 242.326,276.916 242.13,276.876C241.934,276.836 241.758,276.77 241.602,276.678C241.446,276.586 241.32,276.462 241.224,276.306C241.128,276.15 241.076,275.96 241.068,275.736Z" style="fill-rule:nonzero;"/>
        <path d="M241.334,275.726C241.329,275.583 241.212,275.469 241.068,275.469L240.048,275.469C239.975,275.469 239.906,275.499 239.856,275.551C239.805,275.604 239.779,275.675 239.782,275.747C239.799,276.177 239.892,276.54 240.053,276.84C240.218,277.147 240.439,277.394 240.714,277.582C240.98,277.764 241.286,277.896 241.632,277.976C241.963,278.052 242.311,278.091 242.676,278.091C243.004,278.091 243.335,278.059 243.668,277.996C244.016,277.93 244.33,277.812 244.608,277.644C244.896,277.47 245.129,277.242 245.308,276.958C245.488,276.672 245.583,276.314 245.583,275.88C245.583,275.53 245.51,275.238 245.373,275.002C245.237,274.768 245.059,274.574 244.839,274.42C244.631,274.273 244.392,274.155 244.121,274.067C243.869,273.984 243.611,273.914 243.347,273.856C243.106,273.8 242.865,273.746 242.624,273.693C242.4,273.645 242.198,273.585 242.018,273.514C241.861,273.452 241.73,273.374 241.628,273.279C241.559,273.215 241.527,273.133 241.527,273.036C241.527,272.945 241.543,272.869 241.588,272.813C241.644,272.743 241.717,272.689 241.805,272.647C241.911,272.598 242.029,272.563 242.159,272.544C242.301,272.522 242.441,272.511 242.58,272.511C242.729,272.511 242.876,272.527 243.021,272.558C243.156,272.588 243.28,272.636 243.393,272.702C243.494,272.761 243.577,272.84 243.642,272.938C243.708,273.036 243.742,273.161 243.754,273.309C243.765,273.448 243.881,273.555 244.02,273.555L245.04,273.555C245.114,273.555 245.184,273.524 245.234,273.47C245.285,273.417 245.311,273.345 245.306,273.271C245.279,272.851 245.187,272.501 245.035,272.219C244.877,271.926 244.664,271.694 244.399,271.522C244.144,271.357 243.852,271.24 243.521,271.173C243.209,271.109 242.867,271.077 242.496,271.077C242.203,271.077 241.908,271.114 241.61,271.187C241.305,271.262 241.03,271.378 240.787,271.533C240.533,271.695 240.325,271.904 240.164,272.163C239.999,272.426 239.913,272.741 239.913,273.108C239.913,273.585 240.042,273.954 240.281,274.222C240.507,274.475 240.789,274.672 241.128,274.812C241.444,274.943 241.787,275.044 242.157,275.116C242.502,275.182 242.821,275.257 243.114,275.339C243.383,275.414 243.607,275.511 243.786,275.633C243.912,275.718 243.969,275.846 243.969,276.012C243.969,276.137 243.944,276.242 243.881,276.323C243.813,276.411 243.726,276.478 243.62,276.523C243.493,276.578 243.355,276.615 243.204,276.636C243.041,276.658 242.885,276.669 242.736,276.669C242.546,276.669 242.362,276.651 242.183,276.615C242.018,276.581 241.869,276.526 241.737,276.448C241.619,276.379 241.524,276.284 241.451,276.166C241.377,276.046 241.341,275.899 241.334,275.726ZM241.068,275.736L240.048,275.736C240.064,276.12 240.144,276.446 240.288,276.714C240.432,276.982 240.624,277.198 240.864,277.362C241.104,277.526 241.38,277.644 241.692,277.716C242.004,277.788 242.332,277.824 242.676,277.824C242.988,277.824 243.302,277.794 243.618,277.734C243.934,277.674 244.218,277.568 244.47,277.416C244.722,277.264 244.926,277.064 245.082,276.816C245.238,276.568 245.316,276.256 245.316,275.88C245.316,275.584 245.258,275.336 245.142,275.136C245.026,274.936 244.874,274.77 244.686,274.638C244.498,274.506 244.282,274.4 244.038,274.32C243.794,274.24 243.544,274.172 243.288,274.116C243.048,274.06 242.808,274.006 242.568,273.954C242.328,273.902 242.112,273.838 241.92,273.762C241.728,273.686 241.57,273.59 241.446,273.474C241.322,273.358 241.26,273.212 241.26,273.036C241.26,272.876 241.3,272.746 241.38,272.646C241.46,272.546 241.564,272.466 241.692,272.406C241.82,272.346 241.962,272.304 242.118,272.28C242.274,272.256 242.428,272.244 242.58,272.244C242.748,272.244 242.914,272.262 243.078,272.298C243.242,272.334 243.392,272.392 243.528,272.472C243.664,272.552 243.776,272.658 243.864,272.79C243.952,272.922 244.004,273.088 244.02,273.288L245.04,273.288C245.016,272.912 244.936,272.598 244.8,272.346C244.664,272.094 244.482,271.894 244.254,271.746C244.026,271.598 243.764,271.494 243.468,271.434C243.172,271.374 242.848,271.344 242.496,271.344C242.224,271.344 241.95,271.378 241.674,271.446C241.398,271.514 241.15,271.618 240.93,271.758C240.71,271.898 240.53,272.08 240.39,272.304C240.25,272.528 240.18,272.796 240.18,273.108C240.18,273.508 240.28,273.82 240.48,274.044C240.68,274.268 240.93,274.442 241.23,274.566C241.53,274.69 241.856,274.786 242.208,274.854C242.56,274.922 242.886,274.998 243.186,275.082C243.486,275.166 243.736,275.276 243.936,275.412C244.136,275.548 244.236,275.748 244.236,276.012C244.236,276.204 244.188,276.362 244.092,276.486C243.996,276.61 243.874,276.704 243.726,276.768C243.578,276.832 243.416,276.876 243.24,276.9C243.064,276.924 242.896,276.936 242.736,276.936C242.528,276.936 242.326,276.916 242.13,276.876C241.934,276.836 241.758,276.77 241.602,276.678C241.446,276.586 241.32,276.462 241.224,276.306C241.128,276.15 241.076,275.96 241.068,275.736Z" style="fill:white;"/>
    </g>
    <g transform="matrix(1,0,0,1,-189.153,-268.653)">
        <path d="M252.084,274.452L253.092,271.044L252.336,271.044L252.06,271.8C251.924,271.44 251.736,271.186 251.496,271.038C251.256,270.89 250.996,270.816 250.716,270.816C250.292,270.816 249.906,270.916 249.558,271.116C249.21,271.316 248.914,271.576 248.67,271.896C248.426,272.216 248.236,272.58 248.1,272.988C247.964,273.396 247.896,273.808 247.896,274.224C247.896,274.488 247.938,274.736 248.022,274.968C248.106,275.2 248.222,275.4 248.37,275.568C248.518,275.736 248.698,275.87 248.91,275.97C249.122,276.07 249.356,276.12 249.612,276.12C249.908,276.12 250.184,276.038 250.44,275.874C250.696,275.71 250.916,275.524 251.1,275.316L251.136,275.316C251.152,275.58 251.232,275.776 251.376,275.904C251.52,276.032 251.696,276.096 251.904,276.096C252.184,276.096 252.488,276.012 252.816,275.844C253.144,275.676 253.448,275.44 253.728,275.136C254.008,274.832 254.242,274.466 254.43,274.038C254.618,273.61 254.712,273.136 254.712,272.616C254.712,272.072 254.604,271.574 254.388,271.122C254.172,270.67 253.878,270.282 253.506,269.958C253.134,269.634 252.7,269.38 252.204,269.196C251.708,269.012 251.184,268.92 250.632,268.92C250.024,268.92 249.45,269.036 248.91,269.268C248.37,269.5 247.898,269.818 247.494,270.222C247.09,270.626 246.77,271.098 246.534,271.638C246.298,272.178 246.18,272.756 246.18,273.372C246.18,274.012 246.296,274.606 246.528,275.154C246.76,275.702 247.078,276.178 247.482,276.582C247.886,276.986 248.362,277.304 248.91,277.536C249.458,277.768 250.048,277.884 250.68,277.884C251.064,277.884 251.44,277.838 251.808,277.746C252.176,277.654 252.522,277.518 252.846,277.338C253.17,277.158 253.468,276.938 253.74,276.678C254.012,276.418 254.244,276.12 254.436,275.784L253.68,275.784C253.336,276.224 252.898,276.576 252.366,276.84C251.834,277.104 251.28,277.236 250.704,277.236C250.2,277.236 249.724,277.138 249.276,276.942C248.828,276.746 248.434,276.478 248.094,276.138C247.754,275.798 247.486,275.396 247.29,274.932C247.094,274.468 246.996,273.968 246.996,273.432C246.996,272.904 247.09,272.408 247.278,271.944C247.466,271.48 247.724,271.072 248.052,270.72C248.38,270.368 248.766,270.09 249.21,269.886C249.654,269.682 250.132,269.58 250.644,269.58C251.068,269.58 251.474,269.652 251.862,269.796C252.25,269.94 252.596,270.146 252.9,270.414C253.204,270.682 253.446,271.008 253.626,271.392C253.806,271.776 253.896,272.204 253.896,272.676C253.896,272.996 253.844,273.32 253.74,273.648C253.636,273.976 253.504,274.272 253.344,274.536C253.184,274.8 253.006,275.016 252.81,275.184C252.614,275.352 252.424,275.436 252.24,275.436C252.048,275.436 251.952,275.312 251.952,275.064C251.952,274.976 251.966,274.878 251.994,274.77C252.022,274.662 252.052,274.556 252.084,274.452ZM250.716,271.632C250.844,271.632 250.966,271.664 251.082,271.728C251.198,271.792 251.302,271.874 251.394,271.974C251.486,272.074 251.558,272.192 251.61,272.328C251.662,272.464 251.688,272.604 251.688,272.748C251.688,272.996 251.64,273.268 251.544,273.564C251.448,273.86 251.316,274.138 251.148,274.398C250.98,274.658 250.784,274.874 250.56,275.046C250.336,275.218 250.092,275.304 249.828,275.304C249.524,275.304 249.276,275.194 249.084,274.974C248.892,274.754 248.796,274.476 248.796,274.14C248.796,273.876 248.844,273.598 248.94,273.306C249.036,273.014 249.168,272.744 249.336,272.496C249.504,272.248 249.706,272.042 249.942,271.878C250.178,271.714 250.436,271.632 250.716,271.632Z" style="fill-rule:nonzero;"/>
        <path d="M253.726,275.517C253.793,275.454 253.859,275.387 253.924,275.317C254.223,274.992 254.473,274.602 254.674,274.145C254.876,273.685 254.979,273.175 254.979,272.616C254.979,272.03 254.861,271.494 254.629,271.007C254.397,270.522 254.081,270.105 253.681,269.757C253.286,269.412 252.824,269.142 252.297,268.946C251.771,268.751 251.217,268.653 250.632,268.653C249.987,268.653 249.378,268.777 248.805,269.023C248.233,269.269 247.733,269.606 247.305,270.033C246.878,270.461 246.539,270.96 246.29,271.531C246.039,272.104 245.913,272.718 245.913,273.372C245.913,274.049 246.037,274.678 246.282,275.258C246.528,275.839 246.865,276.343 247.293,276.771C247.721,277.199 248.225,277.536 248.806,277.782C249.386,278.027 250.011,278.151 250.68,278.151C251.086,278.151 251.484,278.102 251.873,278.005C252.264,277.907 252.631,277.762 252.976,277.571C253.319,277.38 253.636,277.147 253.924,276.871C254.215,276.593 254.463,276.275 254.668,275.916C254.715,275.834 254.714,275.732 254.667,275.65C254.619,275.568 254.531,275.517 254.436,275.517L253.726,275.517ZM251.17,275.546C251.209,275.697 251.278,275.816 251.376,275.904C251.52,276.032 251.696,276.096 251.904,276.096C252.184,276.096 252.488,276.012 252.816,275.844C253.144,275.676 253.448,275.44 253.728,275.136C254.008,274.832 254.242,274.466 254.43,274.038C254.618,273.61 254.712,273.136 254.712,272.616C254.712,272.072 254.604,271.574 254.388,271.122C254.172,270.67 253.878,270.282 253.506,269.958C253.134,269.634 252.7,269.38 252.204,269.196C251.708,269.012 251.184,268.92 250.632,268.92C250.024,268.92 249.45,269.036 248.91,269.268C248.37,269.5 247.898,269.818 247.494,270.222C247.09,270.626 246.77,271.098 246.534,271.638C246.298,272.178 246.18,272.756 246.18,273.372C246.18,274.012 246.296,274.606 246.528,275.154C246.76,275.702 247.078,276.178 247.482,276.582C247.886,276.986 248.362,277.304 248.91,277.536C249.458,277.768 250.048,277.884 250.68,277.884C251.064,277.884 251.44,277.838 251.808,277.746C252.176,277.654 252.522,277.518 252.846,277.338C253.17,277.158 253.468,276.938 253.74,276.678C254.012,276.418 254.244,276.12 254.436,275.784L253.68,275.784C253.336,276.224 252.898,276.576 252.366,276.84C251.834,277.104 251.28,277.236 250.704,277.236C250.2,277.236 249.724,277.138 249.276,276.942C248.828,276.746 248.434,276.478 248.094,276.138C247.754,275.798 247.486,275.396 247.29,274.932C247.094,274.468 246.996,273.968 246.996,273.432C246.996,272.904 247.09,272.408 247.278,271.944C247.466,271.48 247.724,271.072 248.052,270.72C248.38,270.368 248.766,270.09 249.21,269.886C249.654,269.682 250.132,269.58 250.644,269.58C251.068,269.58 251.474,269.652 251.862,269.796C252.25,269.94 252.596,270.146 252.9,270.414C253.204,270.682 253.446,271.008 253.626,271.392C253.806,271.776 253.896,272.204 253.896,272.676C253.896,272.996 253.844,273.32 253.74,273.648C253.636,273.976 253.504,274.272 253.344,274.536C253.184,274.8 253.006,275.016 252.81,275.184C252.614,275.352 252.424,275.436 252.24,275.436C252.048,275.436 251.952,275.312 251.952,275.064C251.952,274.976 251.966,274.878 251.994,274.77C252.022,274.662 252.052,274.556 252.084,274.452L253.092,271.044L252.336,271.044L252.06,271.8C251.924,271.44 251.736,271.186 251.496,271.038C251.256,270.89 250.996,270.816 250.716,270.816C250.292,270.816 249.906,270.916 249.558,271.116C249.21,271.316 248.914,271.576 248.67,271.896C248.426,272.216 248.236,272.58 248.1,272.988C247.964,273.396 247.896,273.808 247.896,274.224C247.896,274.488 247.938,274.736 248.022,274.968C248.106,275.2 248.222,275.4 248.37,275.568C248.518,275.736 248.698,275.87 248.91,275.97C249.122,276.07 249.356,276.12 249.612,276.12C249.908,276.12 250.184,276.038 250.44,275.874C250.644,275.743 250.826,275.598 250.984,275.439L251.071,275.521C251.056,275.489 251.038,275.446 251.023,275.4C251.049,275.372 251.075,275.344 251.1,275.316L251.136,275.316C251.14,275.386 251.149,275.45 251.162,275.51C251.155,275.532 251.148,275.55 251.143,275.563L251.163,275.555L251.17,275.546ZM252.893,270.777C252.839,270.72 252.783,270.666 252.724,270.614C252.444,270.368 252.126,270.178 251.769,270.046C251.411,269.913 251.036,269.847 250.644,269.847C250.172,269.847 249.731,269.94 249.321,270.128C248.909,270.318 248.551,270.575 248.247,270.902C247.941,271.23 247.701,271.611 247.525,272.044C247.35,272.477 247.263,272.94 247.263,273.432C247.263,273.931 247.353,274.396 247.536,274.828C247.718,275.26 247.967,275.633 248.283,275.949C248.599,276.266 248.966,276.515 249.383,276.698C249.797,276.879 250.238,276.969 250.704,276.969C251.239,276.969 251.753,276.846 252.247,276.601C252.605,276.424 252.917,276.204 253.184,275.941C253.103,275.992 253.021,276.039 252.938,276.081C252.566,276.272 252.221,276.363 251.904,276.363C251.626,276.363 251.391,276.274 251.199,276.103C251.109,276.023 251.035,275.925 250.98,275.806C250.858,275.91 250.726,276.007 250.584,276.099C250.283,276.291 249.959,276.387 249.612,276.387C249.314,276.387 249.043,276.327 248.796,276.211C248.55,276.095 248.342,275.939 248.17,275.744C248.001,275.552 247.867,275.324 247.771,275.059C247.677,274.798 247.629,274.52 247.629,274.224C247.629,273.78 247.702,273.339 247.847,272.904C247.993,272.467 248.197,272.077 248.458,271.734C248.724,271.386 249.046,271.103 249.425,270.885C249.813,270.662 250.243,270.549 250.716,270.549C251.046,270.549 251.353,270.636 251.636,270.811C251.775,270.896 251.9,271.011 252.012,271.155L252.086,270.953C252.124,270.847 252.224,270.777 252.336,270.777L252.893,270.777ZM250.716,271.632C250.844,271.632 250.966,271.664 251.082,271.728C251.198,271.792 251.302,271.874 251.394,271.974C251.486,272.074 251.558,272.192 251.61,272.328C251.662,272.464 251.688,272.604 251.688,272.748C251.688,272.996 251.64,273.268 251.544,273.564C251.448,273.86 251.316,274.138 251.148,274.398C250.98,274.658 250.784,274.874 250.56,275.046C250.336,275.218 250.092,275.304 249.828,275.304C249.524,275.304 249.276,275.194 249.084,274.974C248.892,274.754 248.796,274.476 248.796,274.14C248.796,273.876 248.844,273.598 248.94,273.306C249.036,273.014 249.168,272.744 249.336,272.496C249.504,272.248 249.706,272.042 249.942,271.878C250.178,271.714 250.436,271.632 250.716,271.632ZM253.289,271.318L252.339,274.53C252.308,274.631 252.279,274.733 252.252,274.837C252.23,274.92 252.219,274.996 252.219,275.064C252.219,275.095 252.221,275.123 252.225,275.147C252.227,275.154 252.229,275.162 252.231,275.169C252.234,275.169 252.237,275.169 252.24,275.169C252.37,275.169 252.498,275.1 252.636,274.982C252.813,274.83 252.972,274.635 253.116,274.398C253.266,274.151 253.389,273.874 253.486,273.567C253.581,273.267 253.629,272.969 253.629,272.676C253.629,272.246 253.549,271.855 253.385,271.505C253.355,271.441 253.323,271.379 253.289,271.318ZM250.716,271.899C250.799,271.899 250.878,271.92 250.953,271.961C251.044,272.012 251.126,272.076 251.198,272.155C251.267,272.23 251.322,272.32 251.361,272.423C251.401,272.528 251.421,272.637 251.421,272.748C251.421,272.971 251.377,273.215 251.29,273.482C251.202,273.756 251.079,274.013 250.924,274.253C250.773,274.486 250.598,274.68 250.398,274.834C250.223,274.968 250.034,275.037 249.828,275.037C249.606,275.037 249.425,274.959 249.285,274.799C249.134,274.625 249.063,274.405 249.063,274.14C249.063,273.902 249.107,273.652 249.193,273.389C249.281,273.121 249.403,272.873 249.557,272.646C249.706,272.426 249.885,272.242 250.094,272.097C250.284,271.965 250.491,271.899 250.716,271.899Z" style="fill:white;"/>
    </g>
    <g transform="matrix(1,0,0,1,-189.153,-268.653)">
        <path d="M261.396,277.164L261.396,271.488L260.436,271.488L260.436,272.376L260.424,272.376C260.24,272.032 259.984,271.774 259.656,271.602C259.328,271.43 258.968,271.344 258.576,271.344C258.04,271.344 257.588,271.446 257.22,271.65C256.852,271.854 256.556,272.114 256.332,272.43C256.108,272.746 255.948,273.098 255.852,273.486C255.756,273.874 255.708,274.252 255.708,274.62C255.708,275.044 255.766,275.446 255.882,275.826C255.998,276.206 256.172,276.538 256.404,276.822C256.636,277.106 256.924,277.332 257.268,277.5C257.612,277.668 258.016,277.752 258.48,277.752C258.88,277.752 259.258,277.662 259.614,277.482C259.97,277.302 260.236,277.02 260.412,276.636L260.436,276.636L260.436,277.044C260.436,277.388 260.402,277.704 260.334,277.992C260.266,278.28 260.156,278.526 260.004,278.73C259.852,278.934 259.66,279.094 259.428,279.21C259.196,279.326 258.912,279.384 258.576,279.384C258.408,279.384 258.232,279.366 258.048,279.33C257.864,279.294 257.694,279.236 257.538,279.156C257.382,279.076 257.25,278.972 257.142,278.844C257.034,278.716 256.976,278.56 256.968,278.376L255.948,278.376C255.964,278.712 256.052,278.996 256.212,279.228C256.372,279.46 256.574,279.648 256.818,279.792C257.062,279.936 257.334,280.04 257.634,280.104C257.934,280.168 258.228,280.2 258.516,280.2C259.508,280.2 260.236,279.948 260.7,279.444C261.164,278.94 261.396,278.18 261.396,277.164ZM258.54,276.864C258.204,276.864 257.924,276.794 257.7,276.654C257.476,276.514 257.296,276.33 257.16,276.102C257.024,275.874 256.928,275.62 256.872,275.34C256.816,275.06 256.788,274.78 256.788,274.5C256.788,274.204 256.822,273.92 256.89,273.648C256.958,273.376 257.066,273.136 257.214,272.928C257.362,272.72 257.552,272.554 257.784,272.43C258.016,272.306 258.296,272.244 258.624,272.244C258.944,272.244 259.216,272.308 259.44,272.436C259.664,272.564 259.846,272.734 259.986,272.946C260.126,273.158 260.228,273.396 260.292,273.66C260.356,273.924 260.388,274.192 260.388,274.464C260.388,274.752 260.354,275.04 260.286,275.328C260.218,275.616 260.112,275.874 259.968,276.102C259.824,276.33 259.634,276.514 259.398,276.654C259.162,276.794 258.876,276.864 258.54,276.864Z" style="fill-rule:nonzero;"/>
        <path d="M260.152,277.437C260.137,277.611 260.111,277.775 260.074,277.931C260.016,278.18 259.922,278.394 259.79,278.571C259.663,278.741 259.503,278.875 259.309,278.971C259.109,279.071 258.865,279.117 258.576,279.117C258.424,279.117 258.265,279.101 258.099,279.068C257.941,279.037 257.794,278.988 257.66,278.919C257.536,278.855 257.431,278.773 257.346,278.672C257.275,278.588 257.24,278.485 257.234,278.364C257.228,278.222 257.111,278.109 256.968,278.109L255.948,278.109C255.875,278.109 255.805,278.139 255.755,278.192C255.705,278.245 255.678,278.316 255.682,278.389C255.7,278.78 255.806,279.109 255.992,279.379C256.175,279.644 256.405,279.858 256.682,280.022C256.95,280.18 257.249,280.295 257.578,280.365C257.897,280.433 258.21,280.467 258.516,280.467C259.6,280.467 260.389,280.175 260.896,279.625C261.398,279.08 261.663,278.262 261.663,277.164L261.663,271.488C261.663,271.341 261.543,271.221 261.396,271.221L260.436,271.221C260.289,271.221 260.169,271.341 260.169,271.488L260.169,271.63C260.051,271.528 259.921,271.44 259.78,271.366C259.414,271.174 259.013,271.077 258.576,271.077C257.989,271.077 257.494,271.193 257.091,271.417C256.686,271.641 256.361,271.928 256.114,272.276C255.871,272.619 255.697,273.001 255.593,273.422C255.492,273.832 255.441,274.231 255.441,274.62C255.441,275.071 255.503,275.499 255.627,275.904C255.754,276.319 255.944,276.681 256.197,276.991C256.454,277.304 256.771,277.554 257.151,277.74C257.528,277.924 257.971,278.019 258.48,278.019C258.922,278.019 259.341,277.919 259.734,277.72C259.888,277.642 260.028,277.548 260.152,277.437ZM260.365,276.732C260.381,276.701 260.397,276.669 260.412,276.636L260.436,276.636L260.436,277.044C260.436,277.388 260.402,277.704 260.334,277.992C260.266,278.28 260.156,278.526 260.004,278.73C259.852,278.934 259.66,279.094 259.428,279.21C259.196,279.326 258.912,279.384 258.576,279.384C258.408,279.384 258.232,279.366 258.048,279.33C257.864,279.294 257.694,279.236 257.538,279.156C257.382,279.076 257.25,278.972 257.142,278.844C257.034,278.716 256.976,278.56 256.968,278.376L255.948,278.376C255.964,278.712 256.052,278.996 256.212,279.228C256.372,279.46 256.574,279.648 256.818,279.792C257.062,279.936 257.334,280.04 257.634,280.104C257.934,280.168 258.228,280.2 258.516,280.2C259.508,280.2 260.236,279.948 260.7,279.444C261.164,278.94 261.396,278.18 261.396,277.164L261.396,271.488L260.436,271.488L260.436,272.376L260.424,272.376C260.24,272.032 259.984,271.774 259.656,271.602C259.328,271.43 258.968,271.344 258.576,271.344C258.04,271.344 257.588,271.446 257.22,271.65C256.852,271.854 256.556,272.114 256.332,272.43C256.108,272.746 255.948,273.098 255.852,273.486C255.756,273.874 255.708,274.252 255.708,274.62C255.708,275.044 255.766,275.446 255.882,275.826C255.998,276.206 256.172,276.538 256.404,276.822C256.636,277.106 256.924,277.332 257.268,277.5C257.612,277.668 258.016,277.752 258.48,277.752C258.88,277.752 259.258,277.662 259.614,277.482C259.918,277.328 260.157,277.1 260.33,276.796L260.401,276.868C260.391,276.836 260.377,276.787 260.365,276.732ZM258.54,276.864C258.204,276.864 257.924,276.794 257.7,276.654C257.476,276.514 257.296,276.33 257.16,276.102C257.024,275.874 256.928,275.62 256.872,275.34C256.816,275.06 256.788,274.78 256.788,274.5C256.788,274.204 256.822,273.92 256.89,273.648C256.958,273.376 257.066,273.136 257.214,272.928C257.362,272.72 257.552,272.554 257.784,272.43C258.016,272.306 258.296,272.244 258.624,272.244C258.944,272.244 259.216,272.308 259.44,272.436C259.664,272.564 259.846,272.734 259.986,272.946C260.126,273.158 260.228,273.396 260.292,273.66C260.356,273.924 260.388,274.192 260.388,274.464C260.388,274.752 260.354,275.04 260.286,275.328C260.218,275.616 260.112,275.874 259.968,276.102C259.824,276.33 259.634,276.514 259.398,276.654C259.162,276.794 258.876,276.864 258.54,276.864ZM258.54,276.597C258.261,276.597 258.027,276.544 257.841,276.428C257.654,276.311 257.503,276.156 257.389,275.965C257.268,275.763 257.183,275.537 257.133,275.288C257.081,275.025 257.055,274.763 257.055,274.5C257.055,274.226 257.086,273.964 257.149,273.713C257.208,273.475 257.302,273.265 257.431,273.083C257.555,272.908 257.715,272.769 257.91,272.665C258.107,272.56 258.345,272.511 258.624,272.511C258.892,272.511 259.12,272.56 259.308,272.668C259.495,272.774 259.647,272.916 259.763,273.093C259.887,273.28 259.976,273.49 260.033,273.723C260.092,273.966 260.121,274.213 260.121,274.464C260.121,274.732 260.09,274.999 260.026,275.267C259.966,275.524 259.871,275.756 259.743,275.96C259.621,276.152 259.461,276.307 259.262,276.425C259.064,276.542 258.822,276.597 258.54,276.597Z" style="fill:white;"/>
    </g>
    <g transform="matrix(1,0,0,1,-189.153,-268.653)">
        <path d="M262.932,271.488L262.932,277.692L263.952,277.692L263.952,273.828C263.952,273.708 263.982,273.558 264.042,273.378C264.102,273.198 264.198,273.024 264.33,272.856C264.462,272.688 264.634,272.544 264.846,272.424C265.058,272.304 265.312,272.244 265.608,272.244C265.84,272.244 266.03,272.278 266.178,272.346C266.326,272.414 266.444,272.51 266.532,272.634C266.62,272.758 266.682,272.904 266.718,273.072C266.754,273.24 266.772,273.424 266.772,273.624L266.772,277.692L267.792,277.692L267.792,273.828C267.792,273.348 267.936,272.964 268.224,272.676C268.512,272.388 268.908,272.244 269.412,272.244C269.66,272.244 269.862,272.28 270.018,272.352C270.174,272.424 270.296,272.522 270.384,272.646C270.472,272.77 270.532,272.916 270.564,273.084C270.596,273.252 270.612,273.432 270.612,273.624L270.612,277.692L271.632,277.692L271.632,273.144C271.632,272.824 271.582,272.55 271.482,272.322C271.382,272.094 271.242,271.908 271.062,271.764C270.882,271.62 270.666,271.514 270.414,271.446C270.162,271.378 269.88,271.344 269.568,271.344C269.16,271.344 268.786,271.436 268.446,271.62C268.106,271.804 267.832,272.064 267.624,272.4C267.496,272.016 267.276,271.744 266.964,271.584C266.652,271.424 266.304,271.344 265.92,271.344C265.048,271.344 264.38,271.696 263.916,272.4L263.892,272.4L263.892,271.488L262.932,271.488Z" style="fill-rule:nonzero;"/>
        <path d="M264.159,271.706L264.159,271.488C264.159,271.341 264.039,271.221 263.892,271.221L262.932,271.221C262.785,271.221 262.665,271.341 262.665,271.488L262.665,277.692C262.665,277.839 262.785,277.959 262.932,277.959L263.952,277.959C264.099,277.959 264.219,277.839 264.219,277.692L264.219,273.828C264.219,273.73 264.246,273.609 264.295,273.462C264.346,273.31 264.428,273.163 264.54,273.021C264.651,272.879 264.798,272.758 264.977,272.656C265.153,272.557 265.363,272.511 265.608,272.511C265.794,272.511 265.948,272.534 266.067,272.588C266.17,272.636 266.253,272.702 266.315,272.788C266.383,272.884 266.429,272.998 266.457,273.128C266.49,273.279 266.505,273.444 266.505,273.624C266.505,273.624 266.505,277.692 266.505,277.692C266.505,277.839 266.625,277.959 266.772,277.959L267.792,277.959C267.939,277.959 268.059,277.839 268.059,277.692L268.059,273.828C268.059,273.428 268.172,273.105 268.413,272.865C268.654,272.623 268.989,272.511 269.412,272.511C269.614,272.511 269.779,272.535 269.906,272.594C270.017,272.645 270.104,272.713 270.167,272.8C270.233,272.895 270.278,273.006 270.302,273.134C270.331,273.286 270.345,273.45 270.345,273.624C270.345,273.624 270.345,277.692 270.345,277.692C270.345,277.839 270.465,277.959 270.612,277.959L271.632,277.959C271.779,277.959 271.899,277.839 271.899,277.692L271.899,273.144C271.899,272.782 271.839,272.473 271.726,272.215C271.608,271.945 271.441,271.726 271.229,271.556C271.021,271.39 270.773,271.267 270.483,271.189C270.211,271.115 269.906,271.077 269.568,271.077C269.114,271.077 268.698,271.181 268.319,271.385C268.075,271.518 267.86,271.685 267.677,271.887C267.526,271.651 267.328,271.471 267.086,271.347C266.737,271.168 266.349,271.077 265.92,271.077C265.211,271.077 264.625,271.288 264.159,271.706ZM262.932,271.488L262.932,277.692L263.952,277.692L263.952,273.828C263.952,273.708 263.982,273.558 264.042,273.378C264.102,273.198 264.198,273.024 264.33,272.856C264.462,272.688 264.634,272.544 264.846,272.424C265.058,272.304 265.312,272.244 265.608,272.244C265.84,272.244 266.03,272.278 266.178,272.346C266.326,272.414 266.444,272.51 266.532,272.634C266.62,272.758 266.682,272.904 266.718,273.072C266.754,273.24 266.772,273.424 266.772,273.624L266.772,277.692L267.792,277.692L267.792,273.828C267.792,273.348 267.936,272.964 268.224,272.676C268.512,272.388 268.908,272.244 269.412,272.244C269.66,272.244 269.862,272.28 270.018,272.352C270.174,272.424 270.296,272.522 270.384,272.646C270.472,272.77 270.532,272.916 270.564,273.084C270.596,273.252 270.612,273.432 270.612,273.624L270.612,277.692L271.632,277.692L271.632,273.144C271.632,272.824 271.582,272.55 271.482,272.322C271.382,272.094 271.242,271.908 271.062,271.764C270.882,271.62 270.666,271.514 270.414,271.446C270.162,271.378 269.88,271.344 269.568,271.344C269.16,271.344 268.786,271.436 268.446,271.62C268.106,271.804 267.832,272.064 267.624,272.4C267.496,272.016 267.276,271.744 266.964,271.584C266.652,271.424 266.304,271.344 265.92,271.344C265.048,271.344 264.38,271.696 263.916,272.4L263.892,272.4L263.892,271.488L262.932,271.488Z" style="fill:white;"/>
    </g>
    <g transform="matrix(1,0,0,1,-189.153,-268.653)">
        <path d="M278.664,277.668C278.488,277.772 278.244,277.824 277.932,277.824C277.668,277.824 277.458,277.75 277.302,277.602C277.146,277.454 277.068,277.212 277.068,276.876C276.788,277.212 276.462,277.454 276.09,277.602C275.718,277.75 275.316,277.824 274.884,277.824C274.604,277.824 274.338,277.792 274.086,277.728C273.834,277.664 273.616,277.564 273.432,277.428C273.248,277.292 273.102,277.114 272.994,276.894C272.886,276.674 272.832,276.408 272.832,276.096C272.832,275.744 272.892,275.456 273.012,275.232C273.132,275.008 273.29,274.826 273.486,274.686C273.682,274.546 273.906,274.44 274.158,274.368C274.41,274.296 274.668,274.236 274.932,274.188C275.212,274.132 275.478,274.09 275.73,274.062C275.982,274.034 276.204,273.994 276.396,273.942C276.588,273.89 276.74,273.814 276.852,273.714C276.964,273.614 277.02,273.468 277.02,273.276C277.02,273.052 276.978,272.872 276.894,272.736C276.81,272.6 276.702,272.496 276.57,272.424C276.438,272.352 276.29,272.304 276.126,272.28C275.962,272.256 275.8,272.244 275.64,272.244C275.208,272.244 274.848,272.326 274.56,272.49C274.272,272.654 274.116,272.964 274.092,273.42L273.072,273.42C273.088,273.036 273.168,272.712 273.312,272.448C273.456,272.184 273.648,271.97 273.888,271.806C274.128,271.642 274.402,271.524 274.71,271.452C275.018,271.38 275.348,271.344 275.7,271.344C275.98,271.344 276.258,271.364 276.534,271.404C276.81,271.444 277.06,271.526 277.284,271.65C277.508,271.774 277.688,271.948 277.824,272.172C277.96,272.396 278.028,272.688 278.028,273.048L278.028,276.24C278.028,276.48 278.042,276.656 278.07,276.768C278.098,276.88 278.192,276.936 278.352,276.936C278.44,276.936 278.544,276.916 278.664,276.876L278.664,277.668ZM277.008,274.488C276.88,274.584 276.712,274.654 276.504,274.698C276.296,274.742 276.078,274.778 275.85,274.806C275.622,274.834 275.392,274.866 275.16,274.902C274.928,274.938 274.72,274.996 274.536,275.076C274.352,275.156 274.202,275.27 274.086,275.418C273.97,275.566 273.912,275.768 273.912,276.024C273.912,276.192 273.946,276.334 274.014,276.45C274.082,276.566 274.17,276.66 274.278,276.732C274.386,276.804 274.512,276.856 274.656,276.888C274.8,276.92 274.952,276.936 275.112,276.936C275.448,276.936 275.736,276.89 275.976,276.798C276.216,276.706 276.412,276.59 276.564,276.45C276.716,276.31 276.828,276.158 276.9,275.994C276.972,275.83 277.008,275.676 277.008,275.532L277.008,274.488Z" style="fill-rule:nonzero;"/>
        <path d="M278.321,276.667C278.302,276.569 278.295,276.426 278.295,276.24L278.295,273.048C278.295,272.631 278.21,272.293 278.052,272.034C277.891,271.769 277.678,271.563 277.413,271.417C277.162,271.278 276.882,271.185 276.572,271.14C276.284,271.098 275.993,271.077 275.7,271.077C275.326,271.077 274.976,271.116 274.649,271.192C274.308,271.272 274.004,271.404 273.738,271.586C273.463,271.774 273.243,272.018 273.078,272.32C272.916,272.616 272.823,272.979 272.806,273.409C272.803,273.481 272.829,273.552 272.88,273.605C272.93,273.657 272.999,273.687 273.072,273.687L274.092,273.687C274.234,273.687 274.351,273.576 274.358,273.434C274.376,273.09 274.474,272.846 274.692,272.722C274.944,272.578 275.261,272.511 275.64,272.511C275.787,272.511 275.936,272.522 276.087,272.544C276.218,272.563 276.337,272.601 276.442,272.658C276.534,272.708 276.609,272.781 276.667,272.876C276.729,272.976 276.753,273.111 276.753,273.276C276.753,273.379 276.735,273.461 276.674,273.515C276.589,273.591 276.472,273.645 276.326,273.685C276.146,273.733 275.937,273.771 275.701,273.797C275.442,273.826 275.169,273.869 274.882,273.926C274.61,273.976 274.344,274.037 274.085,274.112C273.802,274.192 273.551,274.312 273.331,274.469C273.102,274.632 272.917,274.845 272.777,275.106C272.639,275.363 272.565,275.692 272.565,276.096C272.565,276.454 272.631,276.759 272.755,277.012C272.882,277.272 273.056,277.482 273.273,277.642C273.484,277.798 273.732,277.913 274.02,277.986C274.293,278.056 274.581,278.091 274.884,278.091C275.351,278.091 275.786,278.01 276.189,277.85C276.441,277.75 276.674,277.611 276.888,277.433C276.942,277.582 277.021,277.703 277.118,277.795C277.321,277.987 277.59,278.091 277.932,278.091C278.303,278.091 278.591,278.021 278.8,277.898C278.881,277.85 278.931,277.762 278.931,277.668L278.931,276.876C278.931,276.79 278.889,276.71 278.82,276.66C278.75,276.61 278.661,276.596 278.58,276.623C278.492,276.652 278.416,276.669 278.352,276.669C278.343,276.669 278.331,276.668 278.321,276.667ZM278.664,277.668C278.488,277.772 278.244,277.824 277.932,277.824C277.668,277.824 277.458,277.75 277.302,277.602C277.146,277.454 277.068,277.212 277.068,276.876C276.788,277.212 276.462,277.454 276.09,277.602C275.718,277.75 275.316,277.824 274.884,277.824C274.604,277.824 274.338,277.792 274.086,277.728C273.834,277.664 273.616,277.564 273.432,277.428C273.248,277.292 273.102,277.114 272.994,276.894C272.886,276.674 272.832,276.408 272.832,276.096C272.832,275.744 272.892,275.456 273.012,275.232C273.132,275.008 273.29,274.826 273.486,274.686C273.682,274.546 273.906,274.44 274.158,274.368C274.41,274.296 274.668,274.236 274.932,274.188C275.212,274.132 275.478,274.09 275.73,274.062C275.982,274.034 276.204,273.994 276.396,273.942C276.588,273.89 276.74,273.814 276.852,273.714C276.964,273.614 277.02,273.468 277.02,273.276C277.02,273.052 276.978,272.872 276.894,272.736C276.81,272.6 276.702,272.496 276.57,272.424C276.438,272.352 276.29,272.304 276.126,272.28C275.962,272.256 275.8,272.244 275.64,272.244C275.208,272.244 274.848,272.326 274.56,272.49C274.272,272.654 274.116,272.964 274.092,273.42L273.072,273.42C273.088,273.036 273.168,272.712 273.312,272.448C273.456,272.184 273.648,271.97 273.888,271.806C274.128,271.642 274.402,271.524 274.71,271.452C275.018,271.38 275.348,271.344 275.7,271.344C275.98,271.344 276.258,271.364 276.534,271.404C276.81,271.444 277.06,271.526 277.284,271.65C277.508,271.774 277.688,271.948 277.824,272.172C277.96,272.396 278.028,272.688 278.028,273.048L278.028,276.24C278.028,276.48 278.042,276.656 278.07,276.768C278.098,276.88 278.192,276.936 278.352,276.936C278.44,276.936 278.544,276.916 278.664,276.876L278.664,277.668ZM277.008,274.488C276.88,274.584 276.712,274.654 276.504,274.698C276.296,274.742 276.078,274.778 275.85,274.806C275.622,274.834 275.392,274.866 275.16,274.902C274.928,274.938 274.72,274.996 274.536,275.076C274.352,275.156 274.202,275.27 274.086,275.418C273.97,275.566 273.912,275.768 273.912,276.024C273.912,276.192 273.946,276.334 274.014,276.45C274.082,276.566 274.17,276.66 274.278,276.732C274.386,276.804 274.512,276.856 274.656,276.888C274.8,276.92 274.952,276.936 275.112,276.936C275.448,276.936 275.736,276.89 275.976,276.798C276.216,276.706 276.412,276.59 276.564,276.45C276.716,276.31 276.828,276.158 276.9,275.994C276.972,275.83 277.008,275.676 277.008,275.532L277.008,274.488ZM276.741,274.912L276.741,275.532C276.741,275.643 276.711,275.761 276.656,275.887C276.598,276.019 276.506,276.141 276.383,276.254C276.254,276.373 276.085,276.47 275.881,276.549C275.667,276.631 275.411,276.669 275.112,276.669C274.972,276.669 274.84,276.656 274.714,276.628C274.604,276.603 274.508,276.565 274.426,276.51C274.351,276.46 274.291,276.395 274.244,276.315C274.198,276.236 274.179,276.138 274.179,276.024C274.179,275.839 274.212,275.69 274.296,275.583C274.385,275.469 274.501,275.382 274.642,275.321C274.807,275.249 274.993,275.198 275.201,275.166C275.43,275.13 275.657,275.098 275.883,275.071C276.118,275.042 276.344,275.004 276.559,274.959L276.741,274.912Z" style="fill:white;"/>
    </g>
    <g transform="matrix(1,0,0,1,-189.153,-268.653)">
        <path d="M280.692,270.372L280.692,269.124L279.672,269.124L279.672,270.372L280.692,270.372ZM279.672,271.488L279.672,277.692L280.692,277.692L280.692,271.488L279.672,271.488Z" style="fill-rule:nonzero;"/>
        <path d="M279.672,271.221C279.525,271.221 279.405,271.341 279.405,271.488L279.405,277.692C279.405,277.839 279.525,277.959 279.672,277.959L280.692,277.959C280.839,277.959 280.959,277.839 280.959,277.692L280.959,271.488C280.959,271.341 280.839,271.221 280.692,271.221L279.672,271.221ZM279.672,271.488L279.672,277.692L280.692,277.692L280.692,271.488L279.672,271.488ZM280.692,270.639C280.839,270.639 280.959,270.519 280.959,270.372L280.959,269.124C280.959,268.977 280.839,268.857 280.692,268.857L279.672,268.857C279.525,268.857 279.405,268.977 279.405,269.124L279.405,270.372C279.405,270.519 279.525,270.639 279.672,270.639L280.692,270.639ZM280.692,270.372L280.692,269.124L279.672,269.124L279.672,270.372L280.692,270.372Z" style="fill:white;"/>
    </g>
    <g transform="matrix(1,0,0,1,-189.153,-268.653)">
        <rect x="282.336" y="269.124" width="1.02" height="8.568"/>
        <path d="M283.623,269.124C283.623,268.977 283.503,268.857 283.356,268.857L282.336,268.857C282.189,268.857 282.069,268.977 282.069,269.124L282.069,277.692C282.069,277.839 282.189,277.959 282.336,277.959L283.356,277.959C283.503,277.959 283.623,277.839 283.623,277.692L283.623,269.124ZM283.356,269.124L282.336,269.124L282.336,277.692L283.356,277.692L283.356,269.124Z" style="fill:white;"/>
    </g>
    <g transform="matrix(1,0,0,1,-189.153,-268.653)">
        <rect x="285.168" y="276.36" width="1.332" height="1.332"/>
        <path d="M286.767,276.36C286.767,276.213 286.647,276.093 286.5,276.093L285.168,276.093C285.021,276.093 284.901,276.213 284.901,276.36L284.901,277.692C284.901,277.839 285.021,277.959 285.168,277.959L286.5,277.959C286.647,277.959 286.767,277.839 286.767,277.692L286.767,276.36ZM286.5,276.36L285.168,276.36L285.168,277.692L286.5,277.692L286.5,276.36Z" style="fill:white;"/>
    </g>
    <g transform="matrix(1,0,0,1,-189.153,-268.653)">
        <path d="M292.488,273.48L293.544,273.48C293.504,273.112 293.408,272.794 293.256,272.526C293.104,272.258 292.91,272.036 292.674,271.86C292.438,271.684 292.166,271.554 291.858,271.47C291.55,271.386 291.22,271.344 290.868,271.344C290.38,271.344 289.952,271.43 289.584,271.602C289.216,271.774 288.91,272.01 288.666,272.31C288.422,272.61 288.24,272.962 288.12,273.366C288,273.77 287.94,274.204 287.94,274.668C287.94,275.132 288.002,275.558 288.126,275.946C288.25,276.334 288.434,276.668 288.678,276.948C288.922,277.228 289.226,277.444 289.59,277.596C289.954,277.748 290.372,277.824 290.844,277.824C291.636,277.824 292.262,277.616 292.722,277.2C293.182,276.784 293.468,276.192 293.58,275.424L292.536,275.424C292.472,275.904 292.298,276.276 292.014,276.54C291.73,276.804 291.336,276.936 290.832,276.936C290.512,276.936 290.236,276.872 290.004,276.744C289.772,276.616 289.584,276.446 289.44,276.234C289.296,276.022 289.19,275.78 289.122,275.508C289.054,275.236 289.02,274.956 289.02,274.668C289.02,274.356 289.052,274.054 289.116,273.762C289.18,273.47 289.286,273.212 289.434,272.988C289.582,272.764 289.78,272.584 290.028,272.448C290.276,272.312 290.584,272.244 290.952,272.244C291.384,272.244 291.728,272.352 291.984,272.568C292.24,272.784 292.408,273.088 292.488,273.48Z" style="fill-rule:nonzero;"/>
        <path d="M292.227,273.533C292.252,273.657 292.361,273.747 292.488,273.747L293.544,273.747C293.62,273.747 293.692,273.714 293.742,273.658C293.793,273.602 293.817,273.526 293.809,273.451C293.765,273.043 293.656,272.691 293.488,272.394C293.317,272.093 293.099,271.844 292.833,271.646C292.572,271.451 292.27,271.306 291.928,271.213C291.598,271.123 291.245,271.077 290.868,271.077C290.337,271.077 289.872,271.173 289.471,271.36C289.065,271.55 288.728,271.811 288.459,272.142C288.194,272.468 287.995,272.851 287.864,273.29C287.737,273.718 287.673,274.177 287.673,274.668C287.673,275.162 287.74,275.614 287.872,276.027C288.008,276.452 288.21,276.817 288.477,277.123C288.747,277.434 289.084,277.674 289.487,277.842C289.881,278.007 290.333,278.091 290.844,278.091C291.713,278.091 292.396,277.854 292.901,277.398C293.403,276.944 293.722,276.301 293.844,275.462C293.855,275.386 293.832,275.308 293.782,275.25C293.731,275.191 293.657,275.157 293.58,275.157L292.536,275.157C292.402,275.157 292.289,275.256 292.272,275.389C292.217,275.799 292.075,276.119 291.832,276.345C291.593,276.567 291.257,276.669 290.832,276.669C290.562,276.669 290.329,276.618 290.133,276.511C289.939,276.403 289.781,276.262 289.661,276.084C289.534,275.897 289.441,275.683 289.381,275.443C289.318,275.192 289.287,274.934 289.287,274.668C289.287,274.376 289.317,274.093 289.376,273.819C289.433,273.561 289.526,273.333 289.656,273.135C289.781,272.947 289.948,272.796 290.156,272.682C290.37,272.565 290.635,272.511 290.952,272.511C291.311,272.511 291.599,272.592 291.812,272.772C292.025,272.952 292.16,273.207 292.227,273.533ZM292.488,273.48L293.544,273.48C293.504,273.112 293.408,272.794 293.256,272.526C293.104,272.258 292.91,272.036 292.674,271.86C292.438,271.684 292.166,271.554 291.858,271.47C291.55,271.386 291.22,271.344 290.868,271.344C290.38,271.344 289.952,271.43 289.584,271.602C289.216,271.774 288.91,272.01 288.666,272.31C288.422,272.61 288.24,272.962 288.12,273.366C288,273.77 287.94,274.204 287.94,274.668C287.94,275.132 288.002,275.558 288.126,275.946C288.25,276.334 288.434,276.668 288.678,276.948C288.922,277.228 289.226,277.444 289.59,277.596C289.954,277.748 290.372,277.824 290.844,277.824C291.636,277.824 292.262,277.616 292.722,277.2C293.182,276.784 293.468,276.192 293.58,275.424L292.536,275.424C292.472,275.904 292.298,276.276 292.014,276.54C291.73,276.804 291.336,276.936 290.832,276.936C290.512,276.936 290.236,276.872 290.004,276.744C289.772,276.616 289.584,276.446 289.44,276.234C289.296,276.022 289.19,275.78 289.122,275.508C289.054,275.236 289.02,274.956 289.02,274.668C289.02,274.356 289.052,274.054 289.116,273.762C289.18,273.47 289.286,273.212 289.434,272.988C289.582,272.764 289.78,272.584 290.028,272.448C290.276,272.312 290.584,272.244 290.952,272.244C291.384,272.244 291.728,272.352 291.984,272.568C292.24,272.784 292.408,273.088 292.488,273.48Z" style="fill:white;"/>
    </g>
    <g transform="matrix(1,0,0,1,-189.153,-268.653)">
        <path d="M295.464,274.596C295.464,274.22 295.514,273.886 295.614,273.594C295.714,273.302 295.852,273.056 296.028,272.856C296.204,272.656 296.41,272.504 296.646,272.4C296.882,272.296 297.132,272.244 297.396,272.244C297.66,272.244 297.91,272.296 298.146,272.4C298.382,272.504 298.588,272.656 298.764,272.856C298.94,273.056 299.078,273.302 299.178,273.594C299.278,273.886 299.328,274.22 299.328,274.596C299.328,274.972 299.278,275.306 299.178,275.598C299.078,275.89 298.94,276.134 298.764,276.33C298.588,276.526 298.382,276.676 298.146,276.78C297.91,276.884 297.66,276.936 297.396,276.936C297.132,276.936 296.882,276.884 296.646,276.78C296.41,276.676 296.204,276.526 296.028,276.33C295.852,276.134 295.714,275.89 295.614,275.598C295.514,275.306 295.464,274.972 295.464,274.596ZM294.384,274.596C294.384,275.052 294.448,275.476 294.576,275.868C294.704,276.26 294.896,276.602 295.152,276.894C295.408,277.186 295.724,277.414 296.1,277.578C296.476,277.742 296.908,277.824 297.396,277.824C297.892,277.824 298.326,277.742 298.698,277.578C299.07,277.414 299.384,277.186 299.64,276.894C299.896,276.602 300.088,276.26 300.216,275.868C300.344,275.476 300.408,275.052 300.408,274.596C300.408,274.14 300.344,273.714 300.216,273.318C300.088,272.922 299.896,272.578 299.64,272.286C299.384,271.994 299.07,271.764 298.698,271.596C298.326,271.428 297.892,271.344 297.396,271.344C296.908,271.344 296.476,271.428 296.1,271.596C295.724,271.764 295.408,271.994 295.152,272.286C294.896,272.578 294.704,272.922 294.576,273.318C294.448,273.714 294.384,274.14 294.384,274.596Z" style="fill-rule:nonzero;"/>
        <path d="M294.117,274.596C294.117,275.082 294.186,275.533 294.323,275.951C294.462,276.378 294.672,276.751 294.951,277.07C295.233,277.391 295.58,277.642 295.993,277.822C296.4,278 296.868,278.091 297.396,278.091C297.933,278.091 298.403,278 298.806,277.822C299.214,277.642 299.559,277.391 299.841,277.07C300.12,276.751 300.33,276.378 300.469,275.951C300.606,275.533 300.675,275.082 300.675,274.596C300.675,274.111 300.606,273.657 300.47,273.236C300.33,272.804 300.12,272.429 299.841,272.11C299.56,271.79 299.216,271.537 298.808,271.353C298.404,271.171 297.934,271.077 297.396,271.077C296.867,271.077 296.399,271.17 295.991,271.353C295.579,271.537 295.232,271.79 294.951,272.11C294.672,272.429 294.462,272.804 294.322,273.236C294.186,273.657 294.117,274.111 294.117,274.596ZM294.384,274.596C294.384,275.052 294.448,275.476 294.576,275.868C294.704,276.26 294.896,276.602 295.152,276.894C295.408,277.186 295.724,277.414 296.1,277.578C296.476,277.742 296.908,277.824 297.396,277.824C297.892,277.824 298.326,277.742 298.698,277.578C299.07,277.414 299.384,277.186 299.64,276.894C299.896,276.602 300.088,276.26 300.216,275.868C300.344,275.476 300.408,275.052 300.408,274.596C300.408,274.14 300.344,273.714 300.216,273.318C300.088,272.922 299.896,272.578 299.64,272.286C299.384,271.994 299.07,271.764 298.698,271.596C298.326,271.428 297.892,271.344 297.396,271.344C296.908,271.344 296.476,271.428 296.1,271.596C295.724,271.764 295.408,271.994 295.152,272.286C294.896,272.578 294.704,272.922 294.576,273.318C294.448,273.714 294.384,274.14 294.384,274.596ZM295.464,274.596C295.464,274.22 295.514,273.886 295.614,273.594C295.714,273.302 295.852,273.056 296.028,272.856C296.204,272.656 296.41,272.504 296.646,272.4C296.882,272.296 297.132,272.244 297.396,272.244C297.66,272.244 297.91,272.296 298.146,272.4C298.382,272.504 298.588,272.656 298.764,272.856C298.94,273.056 299.078,273.302 299.178,273.594C299.278,273.886 299.328,274.22 299.328,274.596C299.328,274.972 299.278,275.306 299.178,275.598C299.078,275.89 298.94,276.134 298.764,276.33C298.588,276.526 298.382,276.676 298.146,276.78C297.91,276.884 297.66,276.936 297.396,276.936C297.132,276.936 296.882,276.884 296.646,276.78C296.41,276.676 296.204,276.526 296.028,276.33C295.852,276.134 295.714,275.89 295.614,275.598C295.514,275.306 295.464,274.972 295.464,274.596ZM295.731,274.596C295.731,274.253 295.775,273.947 295.866,273.68C295.954,273.424 296.074,273.208 296.228,273.032C296.378,272.862 296.553,272.732 296.754,272.644C296.956,272.555 297.17,272.511 297.396,272.511C297.622,272.511 297.836,272.555 298.038,272.644C298.239,272.732 298.414,272.862 298.564,273.032C298.718,273.208 298.838,273.424 298.926,273.68C299.017,273.947 299.061,274.253 299.061,274.596C299.061,274.939 299.017,275.245 298.926,275.512C298.838,275.767 298.719,275.981 298.566,276.152C298.415,276.319 298.24,276.447 298.038,276.536C297.836,276.625 297.622,276.669 297.396,276.669C297.17,276.669 296.956,276.625 296.754,276.536C296.552,276.447 296.377,276.319 296.226,276.152C296.073,275.981 295.954,275.767 295.866,275.512C295.775,275.245 295.731,274.939 295.731,274.596Z" style="fill:white;"/>
    </g>
    <g transform="matrix(1,0,0,1,-189.153,-268.653)">
        <path d="M301.608,271.488L301.608,277.692L302.628,277.692L302.628,273.828C302.628,273.708 302.658,273.558 302.718,273.378C302.778,273.198 302.874,273.024 303.006,272.856C303.138,272.688 303.31,272.544 303.522,272.424C303.734,272.304 303.988,272.244 304.284,272.244C304.516,272.244 304.706,272.278 304.854,272.346C305.002,272.414 305.12,272.51 305.208,272.634C305.296,272.758 305.358,272.904 305.394,273.072C305.43,273.24 305.448,273.424 305.448,273.624L305.448,277.692L306.468,277.692L306.468,273.828C306.468,273.348 306.612,272.964 306.9,272.676C307.188,272.388 307.584,272.244 308.088,272.244C308.336,272.244 308.538,272.28 308.694,272.352C308.85,272.424 308.972,272.522 309.06,272.646C309.148,272.77 309.208,272.916 309.24,273.084C309.272,273.252 309.288,273.432 309.288,273.624L309.288,277.692L310.308,277.692L310.308,273.144C310.308,272.824 310.258,272.55 310.158,272.322C310.058,272.094 309.918,271.908 309.738,271.764C309.558,271.62 309.342,271.514 309.09,271.446C308.838,271.378 308.556,271.344 308.244,271.344C307.836,271.344 307.462,271.436 307.122,271.62C306.782,271.804 306.508,272.064 306.3,272.4C306.172,272.016 305.952,271.744 305.64,271.584C305.328,271.424 304.98,271.344 304.596,271.344C303.724,271.344 303.056,271.696 302.592,272.4L302.568,272.4L302.568,271.488L301.608,271.488Z" style="fill-rule:nonzero;"/>
        <path d="M302.835,271.706L302.835,271.488C302.835,271.341 302.715,271.221 302.568,271.221L301.608,271.221C301.461,271.221 301.341,271.341 301.341,271.488L301.341,277.692C301.341,277.839 301.461,277.959 301.608,277.959L302.628,277.959C302.775,277.959 302.895,277.839 302.895,277.692L302.895,273.828C302.895,273.73 302.922,273.609 302.971,273.462C303.022,273.31 303.104,273.163 303.216,273.021C303.327,272.879 303.474,272.758 303.653,272.656C303.829,272.557 304.039,272.511 304.284,272.511C304.47,272.511 304.624,272.534 304.743,272.588C304.846,272.636 304.929,272.702 304.991,272.788C305.059,272.884 305.105,272.998 305.133,273.128C305.166,273.279 305.181,273.444 305.181,273.624C305.181,273.624 305.181,277.692 305.181,277.692C305.181,277.839 305.301,277.959 305.448,277.959L306.468,277.959C306.615,277.959 306.735,277.839 306.735,277.692L306.735,273.828C306.735,273.428 306.848,273.105 307.089,272.865C307.33,272.623 307.665,272.511 308.088,272.511C308.29,272.511 308.455,272.535 308.582,272.594C308.693,272.645 308.78,272.713 308.843,272.8C308.909,272.895 308.954,273.006 308.978,273.134C309.007,273.286 309.021,273.45 309.021,273.624L309.021,277.692C309.021,277.839 309.141,277.959 309.288,277.959L310.308,277.959C310.455,277.959 310.575,277.839 310.575,277.692L310.575,273.144C310.575,272.782 310.515,272.473 310.402,272.215C310.284,271.945 310.117,271.726 309.905,271.556C309.697,271.39 309.449,271.267 309.159,271.189C308.887,271.115 308.582,271.077 308.244,271.077C307.79,271.077 307.374,271.181 306.995,271.385C306.751,271.518 306.536,271.685 306.353,271.887C306.202,271.651 306.004,271.471 305.762,271.347C305.413,271.168 305.025,271.077 304.596,271.077C303.887,271.077 303.301,271.288 302.835,271.706ZM301.608,271.488L301.608,277.692L302.628,277.692L302.628,273.828C302.628,273.708 302.658,273.558 302.718,273.378C302.778,273.198 302.874,273.024 303.006,272.856C303.138,272.688 303.31,272.544 303.522,272.424C303.734,272.304 303.988,272.244 304.284,272.244C304.516,272.244 304.706,272.278 304.854,272.346C305.002,272.414 305.12,272.51 305.208,272.634C305.296,272.758 305.358,272.904 305.394,273.072C305.43,273.24 305.448,273.424 305.448,273.624L305.448,277.692L306.468,277.692L306.468,273.828C306.468,273.348 306.612,272.964 306.9,272.676C307.188,272.388 307.584,272.244 308.088,272.244C308.336,272.244 308.538,272.28 308.694,272.352C308.85,272.424 308.972,272.522 309.06,272.646C309.148,272.77 309.208,272.916 309.24,273.084C309.272,273.252 309.288,273.432 309.288,273.624L309.288,277.692L310.308,277.692L310.308,273.144C310.308,272.824 310.258,272.55 310.158,272.322C310.058,272.094 309.918,271.908 309.738,271.764C309.558,271.62 309.342,271.514 309.09,271.446C308.838,271.378 308.556,271.344 308.244,271.344C307.836,271.344 307.462,271.436 307.122,271.62C306.782,271.804 306.508,272.064 306.3,272.4C306.172,272.016 305.952,271.744 305.64,271.584C305.328,271.424 304.98,271.344 304.596,271.344C303.724,271.344 303.056,271.696 302.592,272.4L302.568,272.4L302.568,271.488L301.608,271.488Z" style="fill:white;"/>
    </g>
</svg>
